<svg xmlns="http://www.w3.org/2000/svg" width="32" height="20" viewBox="0 0 32 20">
  <path fill="#000000" d="M24,0.139183626 C21.8960571,0.139183626 20.1904762,1.85972581 20.1904762,3.98212431 C20.1904762,6.10453818 21.8960571,7.82506115 24,7.82506115 C26.1039429,7.82506115 27.8095238,6.10454202 27.8095238,3.98212431 C27.8095238,1.85972581 26.1039429,0.139183626 24,0.139183626 Z M14.452381,3.21353617 C12.7692267,3.21353617 11.4047619,4.58996992 11.4047619,6.28788488 C11.4047619,7.9858152 12.7692267,9.36224896 14.452381,9.36224896 C16.1355352,9.36224896 17.5,7.9858152 17.5,6.28788488 C17.5,4.58996992 16.1355352,3.21353617 14.452381,3.21353617 Z M5.71428571,6.67217895 C4.45192,6.67217895 3.42857143,7.7045081 3.42857143,8.97794336 C3.42857143,10.2513901 4.45192,11.2837193 5.71428571,11.2837193 C6.97665143,11.2837193 8,10.2513901 8,8.97794336 C8,7.7045081 6.97665143,6.67217895 5.71428571,6.67217895 Z M24,9.84679365 C21.9664686,9.84679365 20.1230705,10.2612164 18.7142857,10.9636675 C19.1545638,11.1324495 19.5713981,11.3304762 19.952381,11.5520986 C21.4076,12.3986984 22.452381,13.6914637 22.452381,15.2269106 L22.452381,19.0698513 L32,19.0698513 L32,14.4583225 C32,11.8089223 28.432,9.84679365 24,9.84679365 Z M14.452381,10.9996759 C12.1706971,10.9996759 10.1555657,11.6056307 8.83333333,12.5608705 C9.28997333,12.6933367 9.71818667,12.8530493 10.1071429,13.0532665 C11.291699,13.6630259 12.1904762,14.6890911 12.1904762,15.9835088 L12.1904762,19.0698513 L21.6904762,19.0698513 L21.6904762,15.2269106 C21.6904762,12.8613885 18.4622857,10.9996759 14.452381,10.9996759 Z M5.71428571,12.9211462 C2.54857143,12.9211462 0,14.1025815 0,15.9954987 L0,19.0698513 L11.4285714,19.0698513 L11.4285714,15.9954987 C11.4285714,14.1025815 8.88,12.9211462 5.71428571,12.9211462 Z"/>
</svg>
