<svg xmlns="http://www.w3.org/2000/svg" viewBox="0 0 23 22">
  <path class="color--liberal" fill="#000000" d="M16.4258035,0.251124956 C14.5964743,0.269882841 12.8759052,0.911736651 11.500478,2.07022236 C9.96761004,0.697529227 8.50553169,2.25541218e-05 7.12785636,2.25541218e-05 C5.22253997,-0.00486500444 3.39727804,0.784797198 2.07184237,2.18740348 C0.195226213,4.18464298 -0.469635707,7.0713779 0.33749616,9.71768552 L5.48335854,9.71768552 L6.8310844,6.7881575 C6.9883117,6.44848817 7.32186143,6.23147203 7.68872813,6.23015216 C8.05657916,6.2303975 8.39144415,6.44757991 8.54909454,6.7881575 L10.9314382,11.8855363 L12.7801369,7.77582695 C12.9089587,7.48819326 13.165822,7.28237072 13.4692925,7.22361212 C13.7727629,7.16485353 14.0852034,7.26044625 14.3075596,7.48008412 L16.5701054,9.71210547 C16.8863375,10.0954742 16.8674136,10.6620808 16.5263435,11.0223971 C16.1852734,11.3827134 15.6331767,11.4193494 15.2496064,11.1071188 L13.9508887,9.8404467 L11.8163088,14.6002322 C11.6586584,14.9408098 11.3237934,15.1579922 10.9559423,15.1582376 C10.5880913,15.1579922 10.2532263,14.9408098 10.0955759,14.6002322 L7.68872813,9.48332328 L6.93999154,11.1099088 C6.78192012,11.4513982 6.44573698,11.6687477 6.07690246,11.6679142 L1.23325739,11.6679142 C1.48026704,12.0479375 1.76098662,12.4037809 2.07184237,12.7309144 L10.9314382,21.2962963 L20.910055,12.7504445 C23.6934637,9.78721348 23.6934637,5.13110436 20.9291137,2.18740348 C19.7431017,0.947798531 18.1198974,0.249872895 16.4258035,0.251124956 Z"/>
</svg>
