<svg xmlns="http://www.w3.org/2000/svg" viewBox="0 0 23 18">
  <path fill="#000000" d="M5.8344898,3.88183673 L9.84306122,0.830816327 C10.9407509,-0.00220632672 12.3905936,-0.209833753 13.6779592,0.281632653 L20.0686735,2.72010204 C20.4849661,2.87691526 20.9263793,2.95644917 21.3712245,2.95479592 L22.4226531,2.95479592 C22.5720131,2.95412947 22.7153115,3.01381378 22.8200386,3.12030839 C22.9247657,3.226803 22.9820435,3.37108021 22.9788776,3.52040816 L22.9788776,11.3357143 C22.9788776,11.6416124 22.7308981,11.8895918 22.425,11.8895918 L21.0356122,11.8895918 C20.8364176,11.8900617 20.6434063,11.9588168 20.4887755,12.0843878 L20.1719388,12.342551 C20.0906759,12.4071485 19.9726183,12.3946115 19.9067347,12.3143878 L12.459898,3.26459184 C12.2724219,3.03602491 11.9480717,2.97471482 11.690102,3.11908163 L8.27765306,5.03183673 C7.59171797,5.41512109 6.76609954,5.45592452 6.04571429,5.14214286 C5.8085279,5.03990591 5.63945337,4.82426252 5.59676126,4.56953294 C5.55406915,4.31480337 5.6435971,4.05581877 5.8344898,3.88183673 Z M0.577346939,11.884898 L1.77897959,11.884898 L2.61683673,10.8592857 C3.12514857,10.2433512 3.93353876,9.96077957 4.71487415,10.1259199 C5.49620953,10.2910601 6.12112506,10.8765702 6.33673469,11.6455102 C7.0576884,11.8441805 7.62267762,12.4047209 7.82704082,13.1240816 C8.35370388,13.2772298 8.80147916,13.626713 9.07795918,14.1004082 C9.53280072,14.1715188 9.95300741,14.3861449 10.2772449,14.7129592 C10.963774,15.4332148 11.0892684,16.5214716 10.5846939,17.3790816 L10.4720408,17.5785714 C10.8814058,17.8828987 11.4230764,17.8915572 11.8413588,17.6192352 C12.2596413,17.3469132 12.4708989,16.8480622 12.3754082,16.3581633 C12.3900576,16.3310732 12.4354317,16.3521957 12.5115306,16.4215306 C12.937133,16.8470186 13.6035753,16.913761 14.105102,16.5811224 C14.5034306,16.303115 14.7003418,15.8163578 14.6073469,15.3395918 C14.6219963,15.3125018 14.6673705,15.3336243 14.7434694,15.4029592 C15.1687145,15.827202 15.8336674,15.8938934 16.3346939,15.562551 C16.738329,15.2862044 16.9393455,14.7965725 16.8463265,14.3163265 C16.8609759,14.2892365 16.9102617,14.3134882 16.9941837,14.3890816 C17.3961144,14.7880457 18.0156576,14.8678936 18.5056122,14.5838776 C18.8211251,14.3953334 19.0357655,14.075548 19.0907331,13.7121256 C19.1457007,13.3487032 19.0352328,12.9797452 18.7895918,12.7063265 L18.0385714,11.8004082 L11.9693878,4.41459184 C11.9077082,4.33912852 11.8005304,4.31928078 11.7159184,4.36765306 L8.81510204,5.99173469 C7.88205672,6.51470983 6.76613438,6.60055001 5.76408163,6.22642857 C5.21235645,6.03303787 4.77648853,5.60233835 4.57653061,5.05295918 C4.41732397,4.48907215 4.48998768,3.88494944 4.77836735,3.37489796 C4.82487112,3.28865657 4.82234345,3.18426165 4.77172036,3.10037195 C4.72109726,3.01648226 4.62991472,2.96558596 4.53193878,2.96653061 L0.577346939,2.96653061 C0.430043262,2.96590644 0.288558657,3.02398556 0.184178315,3.12792548 C0.0797979726,3.2318654 0.0211211266,3.37310316 0.021122449,3.52040816 L0.021122449,11.3357143 C0.0237043398,11.640695 0.272358036,11.8862012 0.577346939,11.884898 Z M4.81591837,11.3239796 C4.35449891,11.0657084 3.7736947,11.1822677 3.44765306,11.5985714 L2.63326531,12.5983673 C2.45812785,12.8130817 2.37662571,13.0891715 2.40707916,13.3645766 C2.4375326,13.6399816 2.57738648,13.8915946 2.79520408,14.0628571 L2.91959184,14.1590816 C3.25078346,14.4194951 3.70715743,14.4520269 4.07193878,14.2412245 C4.08904304,14.2296617 4.11154146,14.2299851 4.12830627,14.2420348 C4.14507108,14.2540845 4.15254875,14.2753064 4.14704082,14.2952041 C4.07171503,14.6768779 4.21678045,15.0685546 4.52255102,15.3090816 L4.62346939,15.3888776 C4.94204607,15.6396125 5.3774964,15.6817824 5.73826531,15.4968367 C5.75587953,15.4882062 5.77678927,15.4898099 5.79288137,15.5010256 C5.80897347,15.5122413 5.81771504,15.5313036 5.81571429,15.5508163 C5.77435857,15.9105875 5.92275627,16.2660311 6.20765306,16.4895918 L6.27806122,16.5435714 C6.60055346,16.7961822 7.04076716,16.8374522 7.40459184,16.6491837 C7.421877,16.6385437 7.44343366,16.6375932 7.46158825,16.6466704 C7.47974283,16.6557477 7.49191641,16.6735634 7.49377551,16.6937755 C7.53594761,16.9529625 7.67420978,17.1867513 7.88102041,17.3485714 L7.92561224,17.3837755 C8.16711074,17.5727876 8.47884128,17.6474941 8.77978005,17.5884777 C9.08071883,17.5294612 9.34114418,17.3425505 9.49336735,17.0763265 L9.64591837,16.8087755 C9.90585089,16.3726456 9.82990847,15.8147609 9.46285714,15.4639796 C9.15221568,15.1824407 8.70400745,15.1123505 8.3222449,15.2856122 C8.31222516,15.2909234 8.30008634,15.2902391 8.29072706,15.2838353 C8.28136778,15.2774316 8.27633244,15.2663652 8.27765306,15.255102 C8.29588486,14.904113 8.13555714,14.5676722 7.85146035,14.3607551 C7.56736356,14.1538379 7.19796001,14.1044578 6.8694898,14.2294898 C6.71459184,14.2576531 6.74744898,14.1215306 6.74744898,14.1215306 C6.91545109,13.7140037 6.80756019,13.2448079 6.47842445,12.951597 C6.14928872,12.6583862 5.67079476,12.6052007 5.28530612,12.8189796 C5.17030612,12.8354082 5.18438776,12.727449 5.18438776,12.727449 C5.46768404,12.2378007 5.30320596,11.6113173 4.81591837,11.3239796 Z"/>
</svg>
