<svg xmlns="http://www.w3.org/2000/svg" viewBox="0 0 347.16 320.55"><defs><style>.cls-1{fill:#0c499c;}.cls-2{fill:#ee3224;}</style></defs><title>conservative_2</title><g id="レイヤー_2" data-name="レイヤー 2"><g id="svg5511"><g id="layer1"><path id="path3496" class="cls-1" d="M152.94,278c-12.89,7.56-17.59,7.76-25.33,7.12-10.67-.91-25.8-12.91-31.12-36.9-8.9-40,2.74-92.51,29.55-141.19C161.87,42,218.67,1,267.29,0l-.78,0L179.38.06C130-.91,67.58,40.49,30.9,107.09,4,155.89-5.08,207.42,2.65,247.7a73.25,73.25,0,0,0,13,29c5.33,7.1,16.72,19.95,30.64,25.78,10.73,4.47,28,7.56,44.89,5.33C116.07,304,152.94,278,152.94,278"/><path id="path3498" class="cls-1" d="M347.11,105.29a151.21,151.21,0,0,0-2.6-32.45,73,73,0,0,0-13-28.95c-5.35-7.12-18.25-20.35-30.66-25.8C286.83,12,270.36,10.63,256,12.77c-22.18,1.79-61.74,29.78-61.74,29.78,12.87-7.56,17.57-7.78,25.33-7.12,10.67.87,25.78,12.89,31.1,36.88,3.32,15,3.77,32,1.61,49.71Z"/><path id="path3500" class="cls-2" d="M190.81,191l42.26-20-8.67-4.28,17.11-20.45-24.16,5.15,1.75-10.73-24.22,19.11a1,1,0,0,1-.66.29.67.67,0,0,1-.68-.8.9.9,0,0,1,.23-.45l18-31.71-12.05,5-2.33-19.81-18.12,19.89-8.07-5L163.75,159v.12a1.24,1.24,0,0,1-1.15,1,.8.8,0,0,1-.8-.64l-9.16-18.7-6.82,10.73-20.06-5,.82,20.39-12.09,4.34,25.87,19.48a1.22,1.22,0,0,1,.52,1.36,1.85,1.85,0,0,1-.93,1.34l-10.75,9.66,31.32-3.69L150,224.08l5.5,0,9.21-24.46L193,202.86l-3.15-9.8a1,1,0,0,1-.21-.84,1.59,1.59,0,0,1,1.17-1.26"/><path id="path3502" class="cls-1" d="M328.64,188.47c-3.69,9.2-6.49,14.27-12.38,25Q311,223.06,305,231.86c-37.69,55.5-94.85,88.24-138.55,88.63l-85.77.06c-.23,0-.51,0-.8,0,48.64-1,105.44-42,141.25-107,1.17-2.1,2.27-4,3.36-6.12l.45-.06Z"/></g></g></g></svg>