<svg xmlns="http://www.w3.org/2000/svg" viewBox="0 0 1064.31 314.11"><defs><style>.cls-1{fill:#fff;}</style></defs><title>green_white</title><g id="レイヤー_2" data-name="レイヤー 2"><g id="Layer_1" data-name="Layer 1"><path class="cls-1" d="M485.63,100.19c-13.2-14.81-30.23-21.93-52.53-21.93-44,0-79,34.37-79,77.33,0,42.67,35.81,78.51,78.08,78.51,20.54,0,37-7.7,51.36-24V220.2c0,29.63-20.84,49.78-51.66,49.78-17.9,0-31.4-6.82-42-21.33H359.13c5.58,12.45,8.51,16.59,17.61,25.18,15.56,14.81,32.29,21.63,53.72,21.63,47.54,0,81.5-30.81,81.5-75v-141H485.63v20.66Zm-2.05,56.59c-1.47,29.92-23.19,52.15-51.36,52.15-27.89,0-50.78-23.7-50.78-52.74s22.89-52.74,51.07-52.74c28.47,0,51.36,22.52,51.36,50.66,0,.89-.29,1.78-.29,2.67Z"/><path class="cls-1" d="M1002.68,78.26c-19,0-34.07,6.52-43.85,19.55V79.32H931.88V230.26H961.2V149.67c0-28.74,14.22-46.22,38.22-46.22,13.33,0,24.89,5.63,30.81,15.11,4.45,6.81,6.23,16.59,6.23,31.11v80.59h27.85v-91c0-36.44-24.89-61-61.63-61Z"/><path class="cls-1" d="M598.66,76.22l-3.07.12h0c-16.32.64-29,7.46-38.9,20.6V79.53H530.8V230.26h28.34V149.37c0-31,11-40.57,35.77-42.8,2.09-.12,3.75-.12,3.75-.12V76.22Z"/><path class="cls-1" d="M576.86,252.94h11c7.41,0,13.51,3.24,13.51,11.29v.22c0,8.21-6.16,11.4-13.51,11.4h-6.26v15.72h-4.71V252.94Zm11.3,19.18c5.51,0,8.48-2.7,8.48-7.67v-.22c0-5.46-3.24-7.51-8.48-7.51h-6.59v15.4Z"/><path class="cls-1" d="M616.31,252.94h6.16l13.08,38.63H630.9l-3.78-11.13H611.18l-3.73,11.13H603l13.29-38.63Zm9.56,23.77-6.7-19.88-6.7,19.88Z"/><path class="cls-1" d="M642.73,252.94h11.62c7.4,0,13.51,3,13.51,10.75v.21c0,6.38-4.27,9.51-9.57,10.54l11.84,17.13h-5.25l-11.5-16.8h-6v16.8h-4.7V252.94ZM654.67,271c5.51,0,8.49-2.38,8.49-7.13v-.21c0-5.24-3.25-7-8.49-7h-7.24V271Z"/><polygon class="cls-1" points="684.12 256.77 672.88 256.77 672.88 252.94 700.06 252.94 700.06 256.77 688.82 256.77 688.82 291.57 684.12 291.57 684.12 256.77 684.12 256.77"/><polygon class="cls-1" points="716.76 274.71 703.84 252.94 709.14 252.94 719.24 270.88 728.97 252.94 733.67 252.94 721.46 274.77 721.46 291.57 716.76 291.57 716.76 274.71 716.76 274.71"/><path class="cls-1" d="M753,272.5v-.43c0-11,7.67-19.61,19-19.61s18.85,8.64,18.85,19.5v.43c0,10.91-7.51,19.67-18.74,19.67-11.41,0-19.13-8.75-19.13-19.56Zm33-.16v-.43c0-8.65-5.08-15.67-14-15.67s-14.16,6.59-14.16,15.78v.43c0,9.35,6.21,15.72,14.27,15.72,8.59,0,13.88-6.48,13.88-15.83Z"/><polygon class="cls-1" points="798.5 252.94 821.08 252.94 821.08 256.77 803.2 256.77 803.2 270.44 817.14 270.44 817.14 274.28 803.2 274.28 803.2 291.57 798.5 291.57 798.5 252.94 798.5 252.94"/><path class="cls-1" d="M841.18,272.5v-.43c0-11.46,7.67-19.72,18.16-19.72,8.05,0,14.86,4.27,15.67,12.64h-4.65c-1-5.89-4.38-8.92-11-8.92-8,0-13.35,6.21-13.35,15.94v.43c0,9.83,5,15.78,13.3,15.78,6.32,0,10.69-3.19,11.67-9.46h4.37c-1.35,8.92-7.51,13.29-16.15,13.29-11.19,0-18.05-7.67-18.05-19.56Z"/><path class="cls-1" d="M892.62,252.94h6.16l13.08,38.63h-4.65l-3.78-11.13H887.49l-3.73,11.13h-4.43l13.29-38.63Zm9.57,23.77-6.71-19.88-6.7,19.88Z"/><polygon class="cls-1" points="918.83 252.94 924.93 252.94 943.74 284.87 943.74 252.94 948.22 252.94 948.22 291.57 942.82 291.57 923.31 258.45 923.31 291.57 918.83 291.57 918.83 252.94 918.83 252.94"/><path class="cls-1" d="M968.7,252.94h6.16l13.08,38.63h-4.65l-3.78-11.13H963.57l-3.73,11.13h-4.43l13.29-38.63Zm9.56,23.77-6.7-19.88-6.7,19.88Z"/><path class="cls-1" d="M995.12,252.94h10.21c13.3,0,19.56,8.21,19.56,19v.49c0,10.7-6.16,19.18-19.66,19.18H995.12V252.94Zm10,34.8c9.94,0,14.91-5.94,14.91-15.4v-.43c0-8.92-4.32-15.18-15-15.18h-5.24v31Z"/><path class="cls-1" d="M1041.43,252.94h6.16l13.07,38.63H1056l-3.78-11.13H1036.3l-3.73,11.13h-4.43l13.29-38.63Zm9.56,23.77-6.7-19.88-6.7,19.88Z"/><path class="cls-1" d="M920.28,151.87c0-44.89-34.91-77.34-77.48-77.34-43.8,0-78.72,34.6-78.72,80.68,0,.76,0,1.5,0,2.23-.07,37.86,28.81,75.37,77.5,75.37,33.09,0,59.43-18.33,71.86-46H882.19c-8,12.83-22.46,20.59-41.28,20.59-25.5,0-47.13-20.65-47.48-40.93H919.36q.93-9.55.92-14.56ZM843.49,99.58c25.33,0,45.18,18.34,48.07,40.82H793.14c0-.14,0-.34.05-.64,3.51-22.19,25.22-40.18,50.3-40.18Z"/><path class="cls-1" d="M753,151.87c0-44.89-34.92-77.34-77.49-77.34-43.8,0-78.71,34.6-78.71,80.68,0,.76,0,1.5,0,2.23-.08,37.86,28.81,75.37,77.49,75.37,33.1,0,59.43-18.33,71.87-46H714.87c-8,12.83-22.46,20.59-41.27,20.59-25.51,0-47.13-20.65-47.49-40.93H752q.93-9.55.92-14.56ZM676.18,99.58c25.32,0,45.18,18.34,48.07,40.82H625.83c0-.14,0-.34,0-.64,3.52-22.19,25.22-40.18,50.31-40.18Z"/><path class="cls-1" d="M24.77,145.63l.17.21a156.48,156.48,0,0,0,21,22.24,73,73,0,0,1,15.42-16.15c.85-.65,1.68-1.34,2.56-1.94l-.12-.12A91.9,91.9,0,0,1,47.41,127.5,106.44,106.44,0,0,0,28.47,142C27.23,143.18,26,144.37,24.77,145.63Zm74.71-5.39c-1.23-1.08-2.34-2.24-3.48-3.38a61.25,61.25,0,0,1-12.93-18.69,52.81,52.81,0,0,0-7.12,0,62.93,62.93,0,0,0-23.63,6.73,84.84,84.84,0,0,0,15.95,21.68l.45.45.28-.17C79,141.31,89.65,139.83,99.48,140.24Zm16.79-49.42a59.16,59.16,0,0,1,.91-11.94,82.72,82.72,0,0,1,4.74-16.19q-14-7.16-33.49-10.38A135,135,0,0,0,83.1,79.63,69.07,69.07,0,0,1,110,86.94,51.7,51.7,0,0,1,116.27,90.82Zm-65.74,81A85.16,85.16,0,0,0,72.75,184.4a53.42,53.42,0,0,1,12.68-11.46,69.36,69.36,0,0,1,11.7-6.11c-.9-.16-1.79-.32-2.67-.51a60.56,60.56,0,0,1-25.95-12.18A66.63,66.63,0,0,0,50.54,171.79ZM143.94,28A239.12,239.12,0,0,0,108.2,7.6a206.88,206.88,0,0,0-18,39.11Q109.84,50,124.29,57.23A130.36,130.36,0,0,1,143.94,28ZM95.26,216.4a59.57,59.57,0,0,1,7.5-19.08,62.26,62.26,0,0,1,3.42-5.49,60.16,60.16,0,0,1-30.55-.72l-.22.32A59.69,59.69,0,0,0,66.9,214.3,84.87,84.87,0,0,0,95.26,216.4Zm-34.63-3.77a67.72,67.72,0,0,1,8.88-23.58,93.71,93.71,0,0,1-22-12.57,121.19,121.19,0,0,0-11.75,26.26A154.21,154.21,0,0,0,60.63,212.64ZM185.06,81.06c-4.22-17.91-16.5-34.54-36.56-49.7a126,126,0,0,0-19.34,28.54,68.49,68.49,0,0,1,20.08,17.31c18.16,23.62,10.29,56.22,8.09,63.87.31.22.63.45.94.69a41,41,0,0,1,5.72-5.11,33.59,33.59,0,0,1,4.16,6h0c.3-.12.64-.22,1-.33,1.18-.41,2.43-.8,3.85-1.15l.23-.06.19,0c.4-.1.76-.22,1.2-.31a33.36,33.36,0,0,1,1.24,7.41c1.11.07,2.28.21,3.54.41,1,.17,2,.32,3.2.59a33,33,0,0,1-1.88,6.93c.92.54,1.89,1.17,2.88,1.87.68.48,1.34.9,2.06,1.47a33.62,33.62,0,0,1-4.79,5.64,42.91,42.91,0,0,1,3.23,5.32l.22.41a33.69,33.69,0,0,1-6.78,3.11,41.85,41.85,0,0,1,.73,6.55s-.34,0-.86.09l-.63,0c.78.62,1.73,1.34,2.78,2.12a103.55,103.55,0,0,0,15.82,9.63,62.32,62.32,0,0,0-9.19-14.78,107.28,107.28,0,0,1,11,15.63c9.6,4.45,21.38,8,34,7.28,28.69-1.62,57.65-23,86.17-63.62a285.62,285.62,0,0,0-26.58-18.31c-10,25.59-24,43.29-41.86,52.85a57.13,57.13,0,0,1-19.22,6.14c-19.79,2.8-42.59-6.32-43.49-6.66,6.37,1.79,35.76,8.78,60.19-4.35,25.09-13.49,42.22-44.7,51-92.84A276.11,276.11,0,0,0,261.32,68c1.65,27.28-3.56,49.12-15.63,65.25-17.81,23.81-56.16,26-57.09,26a92.67,92.67,0,0,0,10.93-2.56c12-3.54,30.15-11.19,41.83-26.83,17.26-23.12,19.4-59.3,6.46-107.57a276.11,276.11,0,0,0-34.71,9.88c14.26,25.15,19.36,48.14,15.08,68.64-6.24,29.82-35,45-40.74,47.72a101.15,101.15,0,0,0,21.39-20.2c6.09-7.76,11.65-17.45,14-28.72C228.67,71.52,215.51,38,183.74,0a208.57,208.57,0,0,0-31.56,27.29c20.93,15.93,33.76,33.51,38.24,52.58,6.19,26.43-8.69,49.79-14.89,58.08a.23.23,0,0,0,0-.05,23.74,23.74,0,0,1-1.55,1.87A101.62,101.62,0,0,0,182.57,120C186,109.08,188.38,95.13,185.06,81.06ZM192.51,258a82.46,82.46,0,0,0,7.92-25.17c0-.19,0-.39.06-.59A61.89,61.89,0,0,1,176.81,213a62,62,0,0,1-6.55,29.51A70.9,70.9,0,0,0,192.51,258ZM44.94,89.92c-1.6.44-3.21.92-4.84,1.42,0,.17.08.35.13.53a149.73,149.73,0,0,0,9.45,27.73A68.61,68.61,0,0,1,73,112.51c.83-.09,1.66-.24,2.5-.3a50.12,50.12,0,0,1,5.36,0c-.14-.44-.3-.87-.44-1.32s-.35-.95-.48-1.45a86.15,86.15,0,0,1-2.66-24.11A117.16,117.16,0,0,0,44.94,89.92Zm89.57,147.91c.24.86.43,1.73.71,2.6a69.89,69.89,0,0,0,12.07,21.72,80.38,80.38,0,0,0,15.42-17.45c.31-.49.6-1,.9-1.48a62,62,0,0,1-12.25-25.68A60.49,60.49,0,0,1,134.51,237.83ZM127,209.13A60.35,60.35,0,0,1,100,221.28c0,.06,0,.11,0,.17a70.06,70.06,0,0,0,1.89,25.29,83.14,83.14,0,0,0,25.38-10.35l.64-.43.48-.32a64,64,0,0,1,1.1-28.46C128.63,207.85,127.83,208.5,127,209.13Zm70.33-11.79a90.05,90.05,0,0,1-21.1-16.72,35.14,35.14,0,0,1-5.22-.18,42.48,42.48,0,0,1-2.09,6.19,33.52,33.52,0,0,1-5.62-2.53l-1.07-.63-.11.12h0a44.05,44.05,0,0,1-4.42,4.55,33.48,33.48,0,0,1-4.76-5.75c-.82.39-1.71.76-2.65,1.13s-2.19.82-3.43,1.2a33.42,33.42,0,0,1-1.92-7.41,39.94,39.94,0,0,1-4-.17c-.84-.07-1.63-.12-2.55-.25a33.77,33.77,0,0,1,1.31-7.2,43.18,43.18,0,0,1-5.31-2.91l-.17-.11a33.69,33.69,0,0,1,4.09-5.83,42.35,42.35,0,0,1-2.91-3.92c-.28-.42-.56-.83-.84-1.29a33.54,33.54,0,0,1,6.37-3.63,42.1,42.1,0,0,1-1.29-6.41,33.64,33.64,0,0,1,8.93-.49,40.84,40.84,0,0,1,3.07-7.24,33.26,33.26,0,0,1,5.61,3.18c1.06-7.81,3.85-38.63-12.74-60.15a63.49,63.49,0,0,0-17.74-15.53,75.1,75.1,0,0,0-4.21,14.5,86.53,86.53,0,0,0-1.37,15c17.09,15.62,22.94,45.86,23.19,47-1.55-5.14-8.22-24.57-22.79-39a64,64,0,0,0,12.75,32.82c-9.22-12.05-15.34-24.25-17.36-37a56.69,56.69,0,0,0-9.7-6.41,64.19,64.19,0,0,0-24.53-6.71A79.94,79.94,0,0,0,85.21,108c.42,1.58.94,3.14,1.45,4.7,24.51,3.66,46.87,28.86,46.35,28.24-4.38-3.91-22.24-18.61-44.1-22.13a77,77,0,0,0,6,11.67,69.1,69.1,0,0,0,4.33,6.15c1,1.26,2,2.53,3.1,3.73.76.06,1.48.15,2.23.23,13.23,1.43,27.86,7.62,28.72,8a106.11,106.11,0,0,0-23.6-4c-1.07-.06-2.16-.09-3.26-.11l13.07,9.16a109.3,109.3,0,0,1-14.75-9.2c-10,0-21.08,1.62-31.2,6.8a76.2,76.2,0,0,0,23.92,13.39c1,.33,2,.65,3,.94,12.26-4.42,28.12-5.57,29.08-5.65a109.78,109.78,0,0,0-22.9,7,62.07,62.07,0,0,0,11.71.92,104.17,104.17,0,0,1-13.66-.06c-8.94,4.09-18.46,10.07-25.6,18.66A77.1,77.1,0,0,0,108.28,189l.38-.05a88.71,88.71,0,0,1,22.27-19.32,101.56,101.56,0,0,0-17.14,18.49A62.13,62.13,0,0,0,132.64,181a103.45,103.45,0,0,1-20.27,9.15,74.33,74.33,0,0,0-11.42,25.39,76.57,76.57,0,0,0,26.89-10c.82-.5,1.66-.94,2.45-1.49,3.39-11.31,10.62-22.84,11.09-23.61a101.84,101.84,0,0,0-7,20.44,62.2,62.2,0,0,0,11.93-12.66,107,107,0,0,1-12.43,14.88,78.18,78.18,0,0,0-.71,29.14A75.62,75.62,0,0,0,150.63,214c-.07-.38-.14-.76-.2-1.13-.29-1.56-.46-3.19-.65-4.83-1.06-10,.41-21.79.51-22.69a102,102,0,0,0,3,24.29,62,62,0,0,0,6.22-15.72A98,98,0,0,1,154,212.15a74.38,74.38,0,0,0,12.57,26A73.7,73.7,0,0,0,175,210.47a89.2,89.2,0,0,1-12.3-25.59h0c.54,1.19,1.5,3.17,2.88,5.68a103.6,103.6,0,0,0,9.65,14.55,62.55,62.55,0,0,0-1.1-12.09,103.88,103.88,0,0,1,2.31,13.54c6.13,7.42,14.29,14.95,24.58,19.91A74.83,74.83,0,0,0,197.36,197.34Zm-66,48.39c-.48-1.21-1-2.43-1.38-3.66-.09-.28-.13-.56-.23-.84l-.21.12a89.45,89.45,0,0,1-26.23,10.72A120.88,120.88,0,0,0,117.48,281a138,138,0,0,0,25.58-15.37A76.3,76.3,0,0,1,131.38,245.73Zm36.09,1.68c-.05.08-.09.17-.15.25a86.64,86.64,0,0,1-16.45,18.7,118,118,0,0,0,23.24,19.2A142.36,142.36,0,0,0,190,262.83,76.49,76.49,0,0,1,167.47,247.41Zm-20.81,22.43a140.56,140.56,0,0,1-26,15.84,234.51,234.51,0,0,0,23.79,28.44,210.66,210.66,0,0,0,26.05-24.39A122.74,122.74,0,0,1,146.66,269.84Zm32.26,18.73a231.58,231.58,0,0,0,37.29,17.59,277.72,277.72,0,0,0,11.64-33.42A129.78,129.78,0,0,1,195.11,265,144.62,144.62,0,0,1,178.92,288.57Zm52.49-82.62a60.89,60.89,0,0,1-31.3-7.14,61.63,61.63,0,0,1,6.18,29.89c26.5,9.76,61.25,2.45,103.42-21.81a277.5,277.5,0,0,0-18.43-30.75C271.49,194.83,251.46,204.83,231.41,205.95ZM205.73,234.3a89,89,0,0,1-8.11,25.81q29,11.19,75.6,7.39a278.49,278.49,0,0,0-3.71-36C245.06,239.6,223.75,240.52,205.73,234.3ZM42.82,172.81A162.19,162.19,0,0,1,21,150.42,216,216,0,0,0,0,180.26a216.9,216.9,0,0,0,30.52,19.8A126,126,0,0,1,42.82,172.81Zm26.44,83A232.92,232.92,0,0,0,81.9,293.69a210.14,210.14,0,0,0,30.55-10.44,125,125,0,0,1-14.49-30A147.85,147.85,0,0,1,69.26,255.77ZM38.84,85.67Q60,79.19,77.55,79.38a138.72,138.72,0,0,1,5.27-27.9,267.28,267.28,0,0,0-48.16-1.31c0,.94,0,2.3.14,3.92A212.24,212.24,0,0,0,38.84,85.67Zm5.92,36.57A151.86,151.86,0,0,1,35,94.19,215.22,215.22,0,0,0,3.4,112.39,222.46,222.46,0,0,0,21.24,141,116.11,116.11,0,0,1,44.76,122.24Zm51.7,125.63A75.56,75.56,0,0,1,94.39,222a91.8,91.8,0,0,1-28.22-2.21,109.65,109.65,0,0,0,2,30.37A146,146,0,0,0,96.46,247.87ZM59.75,218.14a161.75,161.75,0,0,1-25.69-9.86,238.78,238.78,0,0,0-7.19,37.06,210.35,210.35,0,0,0,33.91,4.58A116.84,116.84,0,0,1,59.75,218.14Z"/></g></g></svg>