<svg xmlns="http://www.w3.org/2000/svg" viewBox="0 0 370.27 109.28"><defs><style>.cls-1{fill:#249939;}</style></defs><title>green_logo</title><g id="レイヤー_2" data-name="レイヤー 2"><g id="レイヤー_1-2" data-name="レイヤー 1"><path class="cls-1" d="M168.24,54.54c-.51,10.41-8.07,18.14-17.87,18.14S132.7,64.44,132.7,54.34,140.67,36,150.47,36a17.69,17.69,0,0,1,17.87,17.63c0,.31-.1.62-.1.93Zm.71-19.69c-4.59-5.15-10.52-7.63-18.28-7.63-15.32,0-27.47,12-27.47,26.9s12.46,27.31,27.16,27.31c7.15,0,12.87-2.68,17.87-8.35v3.51c0,10.31-7.25,17.32-18,17.32a16.86,16.86,0,0,1-14.6-7.42H124.94c1.94,4.33,3,5.77,6.13,8.76a25.45,25.45,0,0,0,18.69,7.52c16.54,0,28.35-10.72,28.35-26.08v-49h-9.16v7.19Z" transform="translate(0 0)"/><path class="cls-1" d="M348.83,27.23c-6.6,0-11.85,2.27-15.26,6.8V27.59H324.2V80.11h10.2v-28c0-10,4.95-16.08,13.3-16.08,4.64,0,8.66,2,10.72,5.26,1.55,2.37,2.17,5.77,2.17,10.82v28h9.69V48.46c0-12.68-8.66-21.23-21.44-21.23Z" transform="translate(0 0)"/><path class="cls-1" d="M208.27,26.52l-1.07,0h0a16.92,16.92,0,0,0-13.53,7.17V27.67h-9V80.11h9.86V52c0-10.77,3.83-14.12,12.44-14.89.73,0,1.3,0,1.3,0V26.52Z" transform="translate(0 0)"/><path class="cls-1" d="M204.62,94.67c1.92,0,3-.94,3-2.67v-.08c0-1.9-1.13-2.61-3-2.61h-2.29v5.36ZM200.69,88h3.82c2.58,0,4.7,1.13,4.7,3.93V92c0,2.86-2.14,4-4.7,4h-2.18v5.47h-1.64V88Z" transform="translate(0 0)"/><path class="cls-1" d="M217.74,96.27l-2.33-6.92-2.33,6.92ZM214.41,88h2.14l4.55,13.44h-1.62l-1.31-3.87h-5.55l-1.3,3.87h-1.54L214.41,88Z" transform="translate(0 0)"/><path class="cls-1" d="M227.76,94.29c1.92,0,3-.83,3-2.48v-.07c0-1.82-1.13-2.42-3-2.42h-2.52v5ZM223.6,88h4c2.57,0,4.7,1.05,4.7,3.74v.07c0,2.22-1.49,3.31-3.33,3.67l4.12,6h-1.83l-4-5.85h-2.07v5.85H223.6V88Z" transform="translate(0 0)"/><polygon class="cls-1" points="238 89.33 234.09 89.33 234.09 88 243.55 88 243.55 89.33 239.64 89.33 239.64 101.44 238 101.44 238 89.33 238 89.33 238 89.33"/><polygon class="cls-1" points="249.36 95.57 244.86 88 246.71 88 250.22 94.24 253.61 88 255.24 88 250.99 95.59 250.99 101.44 249.36 101.44 249.36 95.57 249.36 95.57 249.36 95.57"/><path class="cls-1" d="M273.44,94.74v-.15c0-3-1.77-5.45-4.87-5.45s-4.93,2.29-4.93,5.49v.15c0,3.25,2.16,5.47,5,5.47,3,0,4.83-2.26,4.83-5.51ZM262,94.8v-.15a6.59,6.59,0,1,1,13.17,0v.15c0,3.8-2.61,6.84-6.52,6.84A6.55,6.55,0,0,1,262,94.8Z" transform="translate(0 0)"/><polygon class="cls-1" points="277.8 88 285.65 88 285.65 89.33 279.43 89.33 279.43 94.09 284.28 94.09 284.28 95.42 279.43 95.42 279.43 101.44 277.8 101.44 277.8 88 277.8 88 277.8 88"/><path class="cls-1" d="M292.64,94.8v-.15c0-4,2.67-6.86,6.32-6.86,2.8,0,5.17,1.48,5.45,4.4H302.8c-.34-2-1.52-3.1-3.82-3.1-2.78,0-4.64,2.16-4.64,5.55v.15c0,3.42,1.73,5.49,4.63,5.49A3.72,3.72,0,0,0,303,97h1.52c-.47,3.1-2.61,4.62-5.62,4.62-3.89,0-6.28-2.67-6.28-6.8Z" transform="translate(0 0)"/><path class="cls-1" d="M313.87,96.27l-2.33-6.92-2.33,6.92ZM310.54,88h2.14l4.55,13.44h-1.62l-1.32-3.87h-5.55l-1.3,3.87h-1.54L310.54,88Z" transform="translate(0 0)"/><polygon class="cls-1" points="319.66 88 321.78 88 328.32 99.11 328.32 88 329.88 88 329.88 101.44 328 101.44 321.22 89.91 321.22 101.44 319.66 101.44 319.66 88 319.66 88 319.66 88"/><path class="cls-1" d="M340.33,96.27,338,89.35l-2.33,6.92ZM337,88h2.14l4.55,13.44h-1.62l-1.32-3.87h-5.55l-1.3,3.87h-1.54L337,88Z" transform="translate(0 0)"/><path class="cls-1" d="M349.68,100.1c3.46,0,5.19-2.07,5.19-5.36v-.15c0-3.1-1.5-5.28-5.21-5.28h-1.82V100.1ZM346.2,88h3.55c4.63,0,6.8,2.86,6.8,6.6v.17c0,3.72-2.14,6.67-6.84,6.67H346.2V88Z" transform="translate(0 0)"/><path class="cls-1" d="M365.64,96.27l-2.33-6.92L361,96.27ZM362.31,88h2.14L369,101.44h-1.61l-1.32-3.87h-5.55l-1.3,3.87h-1.54L362.31,88Z" transform="translate(0 0)"/><path class="cls-1" d="M293.45,34.64a16.62,16.62,0,0,1,16.72,14.2H275.93c0-.05,0-.12,0-.22,1.22-7.72,8.77-14,17.5-14Zm26.72,18.19c0-15.62-12.15-26.91-27-26.91C278,25.93,265.82,38,265.82,54c0,.26,0,.52,0,.78,0,13.17,10,26.22,27,26.22a26.74,26.74,0,0,0,25-16H306.91c-2.79,4.47-7.81,7.16-14.36,7.16-8.87,0-16.4-7.18-16.52-14.24h43.81q.32-3.32.32-5.06Z" transform="translate(0 0)"/><path class="cls-1" d="M235.24,34.64A16.62,16.62,0,0,1,252,48.84H217.72c0-.05,0-.12,0-.22,1.22-7.72,8.77-14,17.5-14ZM262,52.83c0-15.62-12.15-26.91-27-26.91-15.24,0-27.38,12-27.38,28.07,0,.26,0,.52,0,.78,0,13.17,10,26.22,27,26.22a26.74,26.74,0,0,0,25-16H248.7c-2.79,4.47-7.81,7.16-14.36,7.16-8.87,0-16.4-7.18-16.52-14.24h43.81q.32-3.32.32-5.06Z" transform="translate(0 0)"/><path class="cls-1" d="M20.79,75.89a56.28,56.28,0,0,1-8.94-3.43,83.06,83.06,0,0,0-2.5,12.89,73.2,73.2,0,0,0,11.8,1.59,40.65,40.65,0,0,1-.36-11.05ZM33.56,86.23a26.29,26.29,0,0,1-.72-9A32,32,0,0,1,23,76.46,38.15,38.15,0,0,0,23.7,87a50.8,50.8,0,0,0,9.86-.79Zm-18-43.71a52.83,52.83,0,0,1-3.39-9.76,74.88,74.88,0,0,0-11,6.33A77.4,77.4,0,0,0,7.39,49a40.4,40.4,0,0,1,8.18-6.52ZM13.51,29.81A44.43,44.43,0,0,1,27,27.62a48.26,48.26,0,0,1,1.83-9.71,93,93,0,0,0-16.75-.45c0,.33,0,.8,0,1.36a73.84,73.84,0,0,0,1.4,11ZM24.1,89a81.05,81.05,0,0,0,4.4,13.19,73.15,73.15,0,0,0,10.63-3.63,43.5,43.5,0,0,1-5-10.44,51.43,51.43,0,0,1-10,.88ZM14.9,60.12a56.45,56.45,0,0,1-7.61-7.79A75.11,75.11,0,0,0,0,62.71,75.43,75.43,0,0,0,10.62,69.6a43.85,43.85,0,0,1,4.28-9.48ZM71.57,81.51a31,31,0,0,1-2.82,9q10.09,3.89,26.3,2.57a97,97,0,0,0-1.29-12.54c-8.51,2.83-15.92,3.15-22.19,1Zm8.93-9.86a21.18,21.18,0,0,1-10.89-2.48,21.44,21.44,0,0,1,2.15,10.4c9.22,3.4,21.31.85,36-7.59a96.54,96.54,0,0,0-6.41-10.7c-6.88,6.5-13.85,10-20.83,10.37ZM62.24,100.39a80.56,80.56,0,0,0,13,6.12,96.63,96.63,0,0,0,4-11.63,45.16,45.16,0,0,1-11.39-2.69,50.31,50.31,0,0,1-5.63,8.2ZM51,93.88a48.91,48.91,0,0,1-9,5.51,81.6,81.6,0,0,0,8.28,9.89,73.27,73.27,0,0,0,9.06-8.49A42.71,42.71,0,0,1,51,93.88Zm7.24-7.8-.05.09a30.13,30.13,0,0,1-5.72,6.51,41,41,0,0,0,8.09,6.68,49.56,49.56,0,0,0,5.51-7.91,26.61,26.61,0,0,1-7.83-5.37Zm-12.56-.58c-.17-.42-.34-.85-.48-1.27,0-.1,0-.19-.08-.29l-.07,0a31.12,31.12,0,0,1-9.13,3.73,42.06,42.06,0,0,0,4.93,10.06,48,48,0,0,0,8.9-5.35,26.54,26.54,0,0,1-4.06-6.91Zm23-16.83a31.32,31.32,0,0,1-7.34-5.82,12.19,12.19,0,0,1-1.82-.06,14.75,14.75,0,0,1-.73,2.15,11.67,11.67,0,0,1-2-.88l-.37-.22,0,0h0a15.36,15.36,0,0,1-1.54,1.58,11.65,11.65,0,0,1-1.66-2c-.28.13-.59.26-.92.39s-.76.29-1.19.42a11.63,11.63,0,0,1-.67-2.58c-.43,0-.89,0-1.39-.06-.29,0-.57,0-.89-.09a11.75,11.75,0,0,1,.46-2.5,15,15,0,0,1-1.85-1l-.06,0a11.74,11.74,0,0,1,1.42-2,14.73,14.73,0,0,1-1-1.36l-.29-.45A11.66,11.66,0,0,1,49,52.88a14.68,14.68,0,0,1-.45-2.23,11.71,11.71,0,0,1,3.11-.17A14.23,14.23,0,0,1,52.76,48a11.57,11.57,0,0,1,2,1.11c.37-2.72,1.34-13.44-4.43-20.93a22.08,22.08,0,0,0-6.17-5.4,26.14,26.14,0,0,0-1.47,5A30.11,30.11,0,0,0,42.17,33c5.95,5.44,8,16,8.07,16.36a34.43,34.43,0,0,0-7.93-13.56A22.26,22.26,0,0,0,46.74,47.2c-3.21-4.19-5.34-8.44-6-12.87a19.71,19.71,0,0,0-3.37-2.23,22.33,22.33,0,0,0-8.53-2.33,27.81,27.81,0,0,0,.85,7.81c.15.55.33,1.09.5,1.63,8.53,1.27,16.31,10,16.12,9.83-1.52-1.36-7.74-6.47-15.34-7.7A26.76,26.76,0,0,0,33,45.4a24.07,24.07,0,0,0,1.51,2.14c.35.44.7.88,1.08,1.3l.78.08a41.38,41.38,0,0,1,10,2.77,36.94,36.94,0,0,0-8.21-1.39l-1.14,0,4.55,3.19a38.07,38.07,0,0,1-5.13-3.2,23.69,23.69,0,0,0-10.85,2.36,26.5,26.5,0,0,0,8.32,4.66l1,.33a44,44,0,0,1,10.12-2,38.18,38.18,0,0,0-8,2.45,21.61,21.61,0,0,0,4.07.32,36.22,36.22,0,0,1-4.75,0,25.08,25.08,0,0,0-8.91,6.49,26.82,26.82,0,0,0,10.15.88l.13,0A30.86,30.86,0,0,1,45.55,59a35.35,35.35,0,0,0-6,6.43A21.61,21.61,0,0,0,46.14,63a36,36,0,0,1-7.05,3.18,25.86,25.86,0,0,0-4,8.83,26.65,26.65,0,0,0,9.36-3.49c.28-.17.58-.33.85-.52a38.89,38.89,0,0,1,3.86-8.22,35.42,35.42,0,0,0-2.42,7.11,21.65,21.65,0,0,0,4.15-4.41,37.25,37.25,0,0,1-4.32,5.18,27.19,27.19,0,0,0-.25,10.14,26.31,26.31,0,0,0,6.06-6.33l-.07-.39c-.1-.54-.16-1.11-.23-1.68a39.91,39.91,0,0,1,.18-7.89,35.49,35.49,0,0,0,1,8.45,21.58,21.58,0,0,0,2.16-5.47,34.09,34.09,0,0,1-1.93,6.34,25.88,25.88,0,0,0,4.37,9,25.64,25.64,0,0,0,2.94-9.62,31,31,0,0,1-4.28-8.9h0c.19.42.52,1.1,1,2A36,36,0,0,0,61,71.36a21.76,21.76,0,0,0-.38-4.21,36.15,36.15,0,0,1,.8,4.71,25.86,25.86,0,0,0,8.55,6.93,26,26,0,0,0-1.28-10.13Zm-24.47,4.1A21,21,0,0,1,34.78,77V77a24.37,24.37,0,0,0,.66,8.8,28.92,28.92,0,0,0,8.83-3.6l.22-.15.17-.11a22.28,22.28,0,0,1,.38-9.9c-.28.23-.55.46-.83.68Zm2.6,10c.08.3.15.6.25.9a24.31,24.31,0,0,0,4.2,7.56,28,28,0,0,0,5.36-6.07l.31-.51a21.55,21.55,0,0,1-4.26-8.93,21,21,0,0,1-5.86,7.06ZM15.64,31.28c-.56.15-1.12.32-1.68.49L14,32a52.09,52.09,0,0,0,3.29,9.65,23.86,23.86,0,0,1,8.1-2.47c.29,0,.58-.08.87-.1a17.47,17.47,0,0,1,1.86,0c0-.15-.11-.3-.15-.46s-.12-.33-.17-.5a30,30,0,0,1-.93-8.39,40.76,40.76,0,0,0-11.24,1.61ZM67,89.75A28.7,28.7,0,0,0,69.73,81l0-.2a21.53,21.53,0,0,1-8.24-6.7,21.56,21.56,0,0,1-2.28,10.27A24.67,24.67,0,0,0,67,89.75ZM64.38,28.2c-1.47-6.23-5.74-12-12.72-17.29a43.84,43.84,0,0,0-6.73,9.93,23.82,23.82,0,0,1,7,6c6.32,8.22,3.58,19.56,2.81,22.22l.33.24a14.28,14.28,0,0,1,2-1.78,11.69,11.69,0,0,1,1.45,2.09h0l.34-.12c.41-.14.85-.28,1.34-.4l.08,0,.07,0,.42-.11a11.6,11.6,0,0,1,.43,2.58c.39,0,.79.07,1.23.14s.71.11,1.11.2a11.49,11.49,0,0,1-.65,2.41c.32.19.66.41,1,.65s.47.31.72.51a11.68,11.68,0,0,1-1.67,2A14.91,14.91,0,0,1,64,59.28l.08.14a11.72,11.72,0,0,1-2.36,1.08A14.57,14.57,0,0,1,62,62.78l-.3,0h-.22l1,.74A36,36,0,0,0,68,66.91a21.67,21.67,0,0,0-3.2-5.14,37.3,37.3,0,0,1,3.83,5.44,25,25,0,0,0,11.84,2.53c10-.57,20.06-8,30-22.14a99.39,99.39,0,0,0-9.25-6.37c-3.5,8.9-8.36,15.06-14.56,18.39a19.88,19.88,0,0,1-6.69,2.14c-6.89,1-14.82-2.2-15.13-2.32,2.21.62,12.44,3.05,20.94-1.51,8.73-4.69,14.69-15.55,17.74-32.3a96.05,96.05,0,0,0-12.55-2c.57,9.49-1.24,17.09-5.44,22.7-6.2,8.28-19.54,9-19.86,9.06a32.29,32.29,0,0,0,3.8-.89C73.59,53.28,79.9,50.62,84,45.18c6-8,6.75-20.63,2.25-37.42a96.06,96.06,0,0,0-12.08,3.44c5,8.75,6.74,16.75,5.25,23.88-2.17,10.38-12.16,15.64-14.17,16.6a35.19,35.19,0,0,0,7.44-7,24.4,24.4,0,0,0,4.87-10C79.55,24.88,75,13.23,63.92,0a72.57,72.57,0,0,0-11,9.49C60.22,15,64.69,21.15,66.25,27.79c2.15,9.2-3,17.32-5.18,20.21v0a8.29,8.29,0,0,1-.54.65,35.37,35.37,0,0,0,3-6.86,25.77,25.77,0,0,0,.87-13.56ZM21.09,74a23.56,23.56,0,0,1,3.09-8.2,32.6,32.6,0,0,1-7.66-4.37,42.16,42.16,0,0,0-4.09,9.13A53.66,53.66,0,0,0,21.09,74Zm12,1.31a20.73,20.73,0,0,1,2.61-6.64,21.61,21.61,0,0,1,1.19-1.91,20.93,20.93,0,0,1-10.63-.25l-.08.11a20.77,20.77,0,0,0-3,8,29.52,29.52,0,0,0,9.87.73ZM50.08,9.75A83.18,83.18,0,0,0,37.64,2.64a72,72,0,0,0-6.26,13.61,42.18,42.18,0,0,1,11.86,3.66A45.36,45.36,0,0,1,50.08,9.75Zm-32.49,50a29.62,29.62,0,0,0,7.73,4.39,18.59,18.59,0,0,1,4.41-4A24.15,24.15,0,0,1,33.79,58l-.93-.18a21.07,21.07,0,0,1-9-4.24,23.18,23.18,0,0,0-6.25,6.14ZM40.45,31.59a20.59,20.59,0,0,1,.32-4.15,28.77,28.77,0,0,1,1.65-5.63A40,40,0,0,0,30.77,18.2a47,47,0,0,0-1.86,9.51,24,24,0,0,1,9.36,2.54,18,18,0,0,1,2.18,1.35ZM34.61,48.79c-.43-.38-.81-.78-1.21-1.18a21.31,21.31,0,0,1-4.5-6.5,18.39,18.39,0,0,0-2.48,0,21.89,21.89,0,0,0-8.22,2.34A29.52,29.52,0,0,0,23.75,51l.16.16.1-.06a19.91,19.91,0,0,1,10.61-2.3Zm-26,1.87.06.07A54.42,54.42,0,0,0,16,58.47a25.38,25.38,0,0,1,5.36-5.62c.3-.23.59-.47.89-.68l0,0a32,32,0,0,1-5.7-7.78A37,37,0,0,0,9.9,49.41c-.43.41-.86.82-1.29,1.26Z" transform="translate(0 0)"/></g></g></svg>