<svg xmlns="http://www.w3.org/2000/svg" xmlns:xlink="http://www.w3.org/1999/xlink" viewBox="0 0 152.56 145.56"><defs><style>.cls-1{fill:none;}.cls-2{clip-path:url(#clip-path);}.cls-3{fill:#d7000f;}</style><clipPath id="clip-path" transform="translate(0 0)"><rect class="cls-1" width="152.56" height="145.56"/></clipPath></defs><title>liberal_2</title><g id="レイヤー_2" data-name="レイヤー 2"><g id="svg5511"><g class="cls-2"><path class="cls-3" d="M152.42,40.71a.4.4,0,0,0-.52,0c-.08.06-7.11,5.57-13,6.45a.92.92,0,0,1-.8-.36c-.4-.57,0-2.1.1-2.84s.17-.92-.13-1-.48.17-.62.36a23.49,23.49,0,0,1-5.18,6.07l.09,0c-2.52,1.55-6,3.33-8.41,2.93A2.54,2.54,0,0,1,122,50.85c-1.08-2-1.12-7.39,5-21.37a.4.4,0,0,0-.11-.47.41.41,0,0,0-.48,0,9.28,9.28,0,0,1-6.1,1.43c-4.7-.79-7.83-6.51-9.07-16.54a.41.41,0,0,0-.33-.36.39.39,0,0,0-.41.22c-4.48,9-9.33,13.42-14,12.62A9.16,9.16,0,0,1,91.19,23a.38.38,0,0,0-.46-.14.39.39,0,0,0-.26.4c1.15,15.21-.63,20.26-2.34,21.82a2.55,2.55,0,0,1-2.29.65c-2.46-.42-5.34-3.49-7.2-5.82a23.24,23.24,0,0,1-2.71-7.18c-.07-.22-.16-.56-.47-.53s-.37.27-.46.94-.29,2.31-.86,2.72a1,1,0,0,1-.92.05c-5.2-2.88-9.9-10.19-10-10.27a.4.4,0,0,0-.49-.16.41.41,0,0,0-.23.46c3.7,16.93,2.49,22.57.83,24.32a2.27,2.27,0,0,1-2.14.67,5.25,5.25,0,0,1-1.94-.86.41.41,0,0,0-.58.56l.13.17a.36.36,0,0,0,.09.16l.22.25C63.54,57.09,66,61.69,66.39,64.9A4.87,4.87,0,0,1,64,69.65a12,12,0,0,1-5.94.39l-.16,0a.43.43,0,0,0-.41.16.44.44,0,0,0,0,.44c.27.46,6.62,11,15.47,13.83a11.82,11.82,0,0,0,1.34.34c.91.21,1.85.41,2.82.57a68.28,68.28,0,0,0,19.05.27C92,96.37,80.87,98.41,80.87,98.41c-.68.17-1.19.22-1.63.32h0c-.73.18-1,1-1.65,2.36L76.11,104c-1.12,2.26,1.28,2.64,2.63,2.37l-.06.06a44.63,44.63,0,0,0,7-2.45,28.24,28.24,0,0,0,8.2-5.63,24.55,24.55,0,0,0,5.44-8.27,25.52,25.52,0,0,0,1.18-3.91l.16,0a71.77,71.77,0,0,0,18.83,6.3c1,.16,1.94.29,2.85.39a11.4,11.4,0,0,0,1.39.12c9.28.29,18.4-7.68,18.78-8a.39.39,0,0,0-.2-.68l-.17,0A12.17,12.17,0,0,1,136.68,82a4.82,4.82,0,0,1-.68-5.24c1.44-2.92,5.27-6.46,11.35-10.52l.32-.18a.62.62,0,0,0,.13-.12l.18-.11a.41.41,0,0,0,.13-.51.39.39,0,0,0-.48-.21,5.23,5.23,0,0,1-2.13.17,2.32,2.32,0,0,1-1.81-1.35c-1-2.2-.27-7.91,8.81-22.67a.4.4,0,0,0-.07-.52Z" transform="translate(0 0)"/><path class="cls-3" d="M104.19,119.28l-5-1.6c-2.79-.8-5.57,17.71-25.09,17.71H58c-10.94,0-14.53-3.78-14.53-20.5V21.3c0-7.56,5.17-10.75,10.15-11.75,1.39-.4,3-.6,3.78-2.78l1.2-3.38C59.59.39,57.6,0,56,0H5.44A3.55,3.55,0,0,0,2.06,1.58l-1.6,4c-.79,1.6-.39,3.2,2.19,3.59C12.41,11.34,15.4,12.74,15.4,21.3V124.25c0,7.56-5.17,10.75-10.15,11.75-1.39.4-3,.6-3.79,2.79L.27,142.17c-1,3,1,3.39,2.59,3.39H96.23c5.37,0,9.15-1.79,9.15-5V121.07a1.72,1.72,0,0,0-1.19-1.79Z" transform="translate(0 0)"/></g></g></g></svg>