<svg xmlns="http://www.w3.org/2000/svg" xmlns:xlink="http://www.w3.org/1999/xlink" viewBox="0 0 281.88 113.33"><defs><style>.cls-1{fill:none;}.cls-2{clip-path:url(#clip-path);}.cls-3{fill:#d7000f;}</style><clipPath id="clip-path" transform="translate(0 0)"><rect class="cls-1" width="281.88" height="113.33"/></clipPath></defs><title>liberal_logo</title><g id="レイヤー_2" data-name="レイヤー 2"><g id="レイヤー_1-2" data-name="レイヤー 1"><g class="cls-2"><path class="cls-3" d="M49.24,100.39l-2.35-.75C45.57,99.26,44.26,108,35,108H27.41c-5.17,0-6.87-1.79-6.87-9.69V54.08c0-3.57,2.45-5.08,4.8-5.55.66-.19,1.41-.28,1.79-1.32l.57-1.6c.47-1.42-.47-1.6-1.22-1.6H2.57a1.68,1.68,0,0,0-1.6.75L.22,46.65c-.37.75-.19,1.51,1,1.7,4.61,1,6,1.69,6,5.74v48.66c0,3.57-2.44,5.08-4.8,5.55-.66.19-1.41.28-1.79,1.32l-.56,1.6c-.47,1.41.47,1.6,1.23,1.6H45.48c2.54,0,4.33-.85,4.33-2.35v-9.22a.82.82,0,0,0-.56-.85Z" transform="translate(0 0)"/><path class="cls-3" d="M156.24,84.58H140.9c0-7.9,4-15.33,10.63-15.33,4,0,8.37,2.73,8.37,11.19,0,2.63-1.13,4.14-3.67,4.14Zm-4.51-19.94c-13.93,0-24.09,9.41-24.09,25.12,0,12.89,7.67,23.53,24.42,23.53,3.67,0,8.84-.85,11-1.88a5.26,5.26,0,0,0,2-2.35l3-6.11c.75-1.51-2-2.73-2.91-1.89-3.3,3.58-6.3,5.74-11.86,5.74-9.5,0-12.37-7.91-12.37-17.12h27.94c1.32,0,2.17-2.07,2.17-3.77,0-12.61-6.49-21.26-19.29-21.26Z" transform="translate(0 0)"/><path class="cls-3" d="M280.67,108.48c-4.61-1-6-1.69-6-5.74V46.37c0-1.88-.85-2.35-2.35-2.35h-15c-.56,0-1.13,0-1.41.75l-.85,1.88c-.56,1.13.38,1.51,1.32,1.79,4.33.94,5.74,1.6,5.74,5.64V77.44h0v24.11h0v.16h0V107h0v2.89c0,1.88.75,3,2.63,2.92h14.56a1.66,1.66,0,0,0,1.6-.76l.75-1.88c.38-.75.19-1.5-1-1.69Z" transform="translate(0 0)"/></g><path class="cls-3" d="M72.32,108.48c-4.61-1-6-1.69-6-5.74V68c0-1.88-.85-2.35-2.35-2.35H49c-.57,0-1.13,0-1.41.75l-.85,1.88c-.56,1.13.38,1.51,1.32,1.79,4.33.94,5.74,1.6,5.74,5.64v1.73h0v24.11h0v.16h0V107h0v2.89c0,1.88.75,3,2.63,2.92H71a1.67,1.67,0,0,0,1.6-.75l.75-1.88c.38-.75.19-1.5-1-1.69Z" transform="translate(0 0)"/><path class="cls-3" d="M60.08,59a7.18,7.18,0,0,0,6.87-7,7,7,0,1,0-6.87,7Z" transform="translate(0 0)"/><g class="cls-2"><path class="cls-3" d="M205.15,64.82c-3.68,0-6.71,2.34-12.41,7.92v-5c0-2-1.22-1.88-2.26-1.88H175.34c-.56,0-1.13,0-1.41.75l-.85,1.88c-.56,1.13.38,1.5,1.32,1.79,4.33.94,5.74,1.6,5.74,5.64v26.91c0,3.58-2.45,5.08-4.8,5.55-.66.19-1.41.28-1.79,1.32l-.56,1.6c-.47,1.41.47,1.6,1.22,1.6h24.65a2.37,2.37,0,0,0,2.07-.75l1-1.88c.47-.75.28-1.5-1.41-1.69-6-1-7.9-1.69-7.9-5.74V91.37c0-2.57-.13-5,.09-7.24v1a16,16,0,0,1,.12-2s0,0,0-.07V83a12.17,12.17,0,0,1,1.52-4.34,5.51,5.51,0,0,1,3.1-2.46,7.64,7.64,0,0,1,4.58.31,8.87,8.87,0,0,0,3.53,1.15,5.45,5.45,0,0,0,4.1-2.1,8.51,8.51,0,0,0,1.34-4.87c0-3.25-1.91-5.82-5.92-5.82Z" transform="translate(0 0)"/><path class="cls-3" d="M137,44.94a7.77,7.77,0,0,0,.85.22c.57.13,1.17.26,1.79.36a43.26,43.26,0,0,0,12.07.17c-2.65,6.81-9.7,8.1-9.7,8.1-.43.11-.76.14-1,.2h0c-.46.11-.62.61-1.05,1.5L139,57.36c-.71,1.43.81,1.67,1.67,1.5l0,0A28.22,28.22,0,0,0,145,57.35a17.85,17.85,0,0,0,5.2-3.57,15.54,15.54,0,0,0,3.45-5.24,16.23,16.23,0,0,0,.75-2.47h.1a45.41,45.41,0,0,0,11.93,4c.62.1,1.23.19,1.81.24a6.64,6.64,0,0,0,.88.08c5.88.19,11.66-4.87,11.9-5.09a.23.23,0,0,0,.08-.25.24.24,0,0,0-.2-.18l-.11,0a7.7,7.7,0,0,1-3.47-1.47,3.06,3.06,0,0,1-.43-3.32c.92-1.85,3.34-4.1,7.19-6.67l.21-.11.08-.08.11-.07a.26.26,0,0,0,.09-.32.25.25,0,0,0-.3-.13,3.32,3.32,0,0,1-1.35.11,1.46,1.46,0,0,1-1.15-.85c-.63-1.39-.17-5,5.58-14.37a.26.26,0,0,0,0-.33.25.25,0,0,0-.33,0s-4.51,3.53-8.25,4.09a.58.58,0,0,1-.5-.23c-.25-.36,0-1.33.06-1.8s.11-.58-.08-.66-.3.11-.39.23a14.86,14.86,0,0,1-3.28,3.85l.06,0c-1.59,1-3.82,2.11-5.33,1.86a1.61,1.61,0,0,1-1.23-.87c-.69-1.29-.71-4.68,3.17-13.54a.26.26,0,0,0-.07-.3.26.26,0,0,0-.31,0,5.89,5.89,0,0,1-3.87.9c-3-.5-5-4.13-5.74-10.48A.26.26,0,0,0,161,0a.25.25,0,0,0-.26.14c-2.84,5.73-5.91,8.5-8.88,8A5.8,5.8,0,0,1,148.52,6a.25.25,0,0,0-.3-.09.25.25,0,0,0-.16.25c.73,9.64-.4,12.84-1.48,13.82a1.61,1.61,0,0,1-1.45.41c-1.56-.27-3.38-2.21-4.56-3.69a14.75,14.75,0,0,1-1.72-4.55c0-.14-.1-.35-.3-.34s-.23.17-.29.6-.18,1.46-.55,1.72a.63.63,0,0,1-.58,0c-3.29-1.83-6.27-6.45-6.31-6.51a.25.25,0,0,0-.31-.1.26.26,0,0,0-.15.29c2.34,10.73,1.58,14.3.52,15.41a1.44,1.44,0,0,1-1.36.42,3.31,3.31,0,0,1-1.23-.54.26.26,0,0,0-.37.35l.08.11a.23.23,0,0,0,.06.1l.14.16c2.79,3.72,4.34,6.63,4.6,8.67a3.09,3.09,0,0,1-1.5,3,7.64,7.64,0,0,1-3.76.25h-.1a.27.27,0,0,0-.26.1.28.28,0,0,0,0,.28c.17.29,4.2,7,9.8,8.77Z" transform="translate(0 0)"/></g><path class="cls-3" d="M238.63,99c-.14,6-4.38,7.66-7.36,7.66-4.56,0-7.76-3.39-7.76-8.82,0-4.65,1.74-6.79,5.62-8.63,3.58-1.74,7.27-3,9.5-4.17V99Zm15.54,8.59c-2.16-.85-3-1.6-3-5V79.18c0-.16,0-.31,0-.46V77c0-5.07-.82-13.44-17-13.44-13,0-20.16,4.08-20.49,9.26a3.6,3.6,0,0,0,.19,1.48,3.15,3.15,0,0,0,.33.66h0a5.82,5.82,0,0,0,.43.71,5.94,5.94,0,0,0,2.67,1.86h0l.15,0,.12,0a6,6,0,0,0,4.67-.66,3.16,3.16,0,0,0,.43-.3l.08-.05h0a5.77,5.77,0,0,0,1.59-2.72,9.26,9.26,0,0,1,7.86-6.31c3.07-.15,6.43,1.72,6.49,7.88v5.22c-4.56,2.61-11.64,4.65-18,6.69-7.76,2.52-10.18,6.59-10.18,12,0,7.37,5,14,14.55,14,5.81,0,10.4-3.37,13.69-5.6V110c0,1.88.75,3,2.63,2.92h13.36c.85,0,1.51-.09,1.88-.75l.47-1.79c.75-1.88-1.41-1.6-2.82-2.82Z" transform="translate(0 0)"/><path class="cls-3" d="M110.69,96.14a21.53,21.53,0,0,1-1.89,5.9,12.66,12.66,0,0,1-2.9,3.9,11.89,11.89,0,0,1-3.73,2.23,12.88,12.88,0,0,1-4.89,1h0A7.37,7.37,0,0,1,93,107.75a5.73,5.73,0,0,1-2.49-3.32,13.12,13.12,0,0,1-.24-1.9V98c0-.2,0-.4,0-.61V76.08l0,0v-2l.7-.3a15.48,15.48,0,0,1,5.79-1.39,13.13,13.13,0,0,1,7.32,2.2,14.21,14.21,0,0,1,5.23,6.68,23.36,23.36,0,0,1,1.86,9,45.45,45.45,0,0,1-.5,5.85Zm6.75-24.91a20.41,20.41,0,0,0-6.57-4.37,24.52,24.52,0,0,0-9-1.39,21.54,21.54,0,0,0-4.73.61,20.16,20.16,0,0,0-4,1.53,9.62,9.62,0,0,0-2.43,1.59l-.46.35V63.74h0V46.41c0-1.87-.84-2.35-2.34-2.35H73c-.57,0-1.13,0-1.41.75l-.84,1.88c-.56,1.13.38,1.5,1.31,1.78,4.31.94,5.72,1.59,5.72,5.63V77.73h0v23.94h0v.16h0v1.12h0v4.16h0v.13c0,.05,0,.1,0,.15V110c0,1.88.75,3,2.63,2.92h7.68v0l8.14.35h0c.34,0,.67,0,1,0q6.73,0,9.52-1.06a26.5,26.5,0,0,0,7.49-4.18,23.5,23.5,0,0,0,5-5.34A28.57,28.57,0,0,0,124,87.84a22.71,22.71,0,0,0-1.34-8.29,23.3,23.3,0,0,0-5.2-8.32Z" transform="translate(0 0)"/></g></g></svg>