<svg xmlns="http://www.w3.org/2000/svg" width="129" height="68" viewBox="0 0 129 68" xmlns:xlink="http://www.w3.org/1999/xlink">
  <defs>
    <polygon id="a" points="0 67.727 128.762 67.727 128.762 .279 0 .279"/>
  </defs>
  <g fill="none" fill-rule="evenodd">
    <polygon fill="#131313" points="0 32.107 104.309 32.107 104.309 .501 0 .501"/>
    <g transform="translate(0 .222)">
      <path fill="#FFFFFF" d="M7.02097617 20.5837882L8.54478867 20.5837882 9.30669492 11.3196713 7.74660117 11.3196713 7.74660117 9.53216729 11.9365816 9.53216729 14.8022965 16.7729883C15.019984 17.4056132 15.1106871 17.8385674 15.1106871 17.8385674L15.1469684 17.8385674C15.1469684 17.8385674 15.2376715 17.4056132 15.4734996 16.7729883L18.3210738 9.53216729 22.5110543 9.53216729 22.5110543 11.3196713 20.9696051 11.3196713 21.7133707 20.5837882 23.2366793 20.5837882 23.2366793 22.3532316 17.9587652 22.3532316 17.9587652 20.5837882 19.3913707 20.5837882 18.9197145 14.1185724C18.8834332 13.6675575 18.9741363 12.9265686 18.9741363 12.9265686L18.9197145 12.9265686C18.9197145 12.9265686 18.7745895 13.6314362 18.6113238 14.0648921L16.1447027 19.9697257 14.1129527 19.9697257 11.6463316 14.0648921C11.483066 13.6314362 11.3560816 12.9265686 11.3560816 12.9265686L11.2835191 12.9265686C11.2835191 12.9265686 11.3742223 13.6675575 11.337941 14.1185724L10.8662848 20.5837882 12.3175348 20.5837882 12.3175348 22.3532316 7.02097617 22.3532316 7.02097617 20.5837882zM32.398602 16.340034L31.1831801 12.7103424C30.9836332 12.0782191 30.947352 11.5905812 30.947352 11.5905812L30.8929301 11.5905812C30.8929301 11.5905812 30.8385082 12.0782191 30.657102 12.7103424L29.4240434 16.340034 32.398602 16.340034zM24.5265785 20.5837882L25.7052152 20.5837882 29.5686645 9.53216729 32.2716176 9.53216729 36.1350668 20.5837882 37.3137035 20.5837882 37.3137035 22.3532316 32.4711645 22.3532316 32.4711645 20.5837882 33.7410082 20.5837882 32.9428207 18.18172 28.8798246 18.18172 28.0816371 20.5837882 29.3514809 20.5837882 29.3514809 22.3532316 24.5265785 22.3532316 24.5265785 20.5837882zM38.8211895 20.5837882L40.3631426 20.5837882 40.3631426 11.3196713 38.8211895 11.3196713 38.8211895 9.53216729 43.972623 9.53216729 43.972623 11.3196713 42.7390605 11.3196713 42.7390605 14.8048776 44.1721699 14.8048776 46.6206504 11.3196713 45.5140723 11.3196713 45.5140723 9.53216729 50.2301309 9.53216729 50.2301309 11.3196713 49.0691309 11.3196713 45.9675879 15.5634255 45.9675879 15.5995468C45.9675879 15.5995468 46.4029629 15.7982141 46.8020566 16.556762L48.7793848 20.1322716C48.9421465 20.4393029 49.1961152 20.5837882 49.6314902 20.5837882L50.2301309 20.5837882 50.2301309 22.3532316 48.5798379 22.3532316C47.4914004 22.3532316 47.1467285 22.0823216 46.7657754 21.3960164L44.5168418 17.1703228C44.3172949 16.8276719 44.0633262 16.7012473 43.5553887 16.7012473L42.7390605 16.7012473 42.7390605 20.5837882 44.2265918 20.5837882 44.2265918 22.3532316 38.8211895 22.3532316 38.8211895 20.5837882z"/>
      <polygon fill="#FFFFFF" points="52.154 20.584 53.696 20.584 53.696 11.32 52.154 11.32 52.154 9.532 61.713 9.532 61.713 12.837 59.682 12.837 59.682 11.428 56.072 11.428 56.072 14.95 60.317 14.95 60.317 16.846 56.072 16.846 56.072 20.457 59.954 20.457 59.954 19.013 61.986 19.013 61.986 22.353 52.154 22.353"/>
      <path fill="#FFFFFF" d="M70.2582375 11.3197716L68.7162844 11.3197716 68.7162844 9.53226763 74.1942492 9.53226763 74.1942492 11.3197716 72.6346594 11.3197716 72.6346594 17.5321381C72.6346594 18.254063 72.797925 18.9042469 73.0700344 19.3557635 73.5230461 20.07819 74.4119367 20.4930836 75.5003742 20.4930836 76.5706711 20.4930836 77.4409172 20.0962507 77.9125734 19.3372011 78.2028234 18.8500649 78.3479484 18.254063 78.3479484 17.5140775L78.3479484 11.3197716 76.8064992 11.3197716 76.8064992 9.53226763 82.2658195 9.53226763 82.2658195 11.3197716 80.7243703 11.3197716 80.7243703 17.5321381C80.7243703 18.7778222 80.3791945 19.9337047 79.7810578 20.7464345 78.8377453 21.974058 77.2232297 22.5700599 75.5003742 22.5700599 73.6681711 22.5700599 72.1085813 21.902317 71.2196906 20.7639935 70.5484875 19.9337047 70.2582375 18.8139436 70.2582375 17.5321381L70.2582375 11.3197716zM90.0309141 15.9064778C90.5751328 15.9064778 90.9742266 15.8342351 91.3370391 15.6536285 92.0258789 15.3109776 92.3891953 14.5880493 92.3891953 13.6493965 92.3891953 12.764424 92.0445234 12.0781188 91.4458828 11.7354679 91.0830703 11.5182382 90.6295547 11.4279349 90.0490547 11.4279349L88.0359492 11.4279349 88.0359492 15.9064778 90.0309141 15.9064778zM84.1180781 20.5836879L85.6595273 20.5836879 85.6595273 11.3195709 84.1180781 11.3195709 84.1180781 9.53206696 90.2848828 9.53206696C91.0467891 9.53206696 91.826332 9.58574726 92.4617578 9.85665721 93.858082 10.4351001 94.7651133 11.8613908 94.7651133 13.6493965 94.7651133 15.4735235 93.8036602 17.0257372 92.3166328 17.5494964 91.7179922 17.7486654 91.0649297 17.8023457 90.3393047 17.8023457L88.0359492 17.8023457 88.0359492 20.5836879 89.5955391 20.5836879 89.5955391 22.3536329 84.1180781 22.3536329 84.1180781 20.5836879z"/>
      <mask id="b" fill="white">
        <use xlink:href="#a"/>
      </mask>
      <polygon fill="#131313" points="0 67.727 128.762 67.727 128.762 36.121 0 36.121" mask="url(#b)"/>
      <path fill="#FFFFFF" d="M9.56439258 56.565496L11.1244863 56.565496 11.1244863 52.9719257 7.6959082 47.3013791 6.51727148 47.3013791 6.51727148 45.5138751 11.3058926 45.5138751 11.3058926 47.3013791 10.0541895 47.3013791 12.012873 50.6601608C12.1942793 50.9671921 12.2849824 51.238102 12.2849824 51.238102L12.3212637 51.238102C12.3212637 51.238102 12.4301074 50.9671921 12.6115137 50.6601608L14.5707012 47.3013791 13.3371387 47.3013791 13.3371387 45.5138751 18.0894785 45.5138751 18.0894785 47.3013791 16.9284785 47.3013791 13.5004043 52.9719257 13.5004043 56.565496 15.0423574 56.565496 15.0423574 58.3349394 9.56439258 58.3349394 9.56439258 56.565496zM25.7995969 56.4748415C28.121093 56.4748415 30.0258586 54.4706096 30.0258586 51.8342544 30.0258586 49.3057615 28.121093 47.3732706 25.7995969 47.3732706 23.4781008 47.3732706 21.5733352 49.3057615 21.5733352 51.8342544 21.5733352 54.4706096 23.4781008 56.4748415 25.7995969 56.4748415M25.7995969 45.2972976C29.6086242 45.2972976 32.4743391 48.1679398 32.4743391 51.8342544 32.4743391 55.6079297 29.6086242 58.5518178 25.7995969 58.5518178 21.9905695 58.5518178 19.1243508 55.6079297 19.1243508 51.8342544 19.1243508 48.1679398 21.9905695 45.2972976 25.7995969 45.2972976M35.6321684 47.3014794L34.0902152 47.3014794 34.0902152 45.5139754 39.5681801 45.5139754 39.5681801 47.3014794 38.0085902 47.3014794 38.0085902 53.5138459C38.0085902 54.2357708 38.1718559 54.8859547 38.4439652 55.3374713 38.896977 56.0598978 39.7858676 56.4747914 40.8743051 56.4747914 41.944098 56.4747914 42.814848 56.0779585 43.2865043 55.3189089 43.5767543 54.8317727 43.7218793 54.2357708 43.7218793 53.4957853L43.7218793 47.3014794 42.1804301 47.3014794 42.1804301 45.5139754 47.6397504 45.5139754 47.6397504 47.3014794 46.0983012 47.3014794 46.0983012 53.5138459C46.0983012 54.75953 45.7531254 55.9154125 45.1549887 56.7281423 44.2116762 57.9557658 42.5971605 58.5517677 40.8743051 58.5517677 39.0426059 58.5517677 37.4825121 57.8840248 36.5936215 56.7457013 35.9224184 55.9154125 35.6321684 54.7956514 35.6321684 53.5138459L35.6321684 47.3014794zM55.5497684 51.5270726C56.8014715 51.5270726 57.6177996 50.7865854 57.6177996 49.413975 57.6177996 48.5836862 57.309409 47.9335023 56.6019246 47.6445317 56.2391121 47.4819857 55.7493152 47.4097431 55.1506746 47.4097431L53.4091746 47.4097431 53.4091746 51.5270726 55.5497684 51.5270726zM49.4918074 56.565496L51.0332566 56.565496 51.0332566 47.3013791 49.4918074 47.3013791 49.4918074 45.5138751 55.1688152 45.5138751C56.1121277 45.5138751 56.8921746 45.5675554 57.6177996 45.7847851 59.0504051 46.2538606 59.9937176 47.4097431 59.9937176 49.2158094 59.9937176 51.0033134 59.0504051 52.2675598 57.5633777 52.7727567L57.5633777 52.8093797C57.5633777 52.8093797 57.943827 53.0075454 58.1977957 53.4776243L59.685327 56.1501008C59.8667332 56.474691 60.120702 56.565496 60.556077 56.565496L60.9733113 56.565496 60.9733113 58.3349394 59.4676395 58.3349394C58.3973426 58.3349394 58.0708113 58.1187131 57.6717176 57.3777242L55.8400184 54.0731245C55.567909 53.5859883 55.3320809 53.4229406 54.5883152 53.4229406L53.4091746 53.4229406 53.4091746 56.565496 54.8967059 56.565496 54.8967059 58.3349394 49.4918074 58.3349394 49.4918074 56.565496zM68.2490121 47.3014794L67.0698715 47.3014794 67.0698715 45.5139754 72.0943207 45.5139754 72.0943207 47.3014794 70.7337738 47.3014794 73.146477 54.6150447C73.3092387 55.138804 73.3641645 55.7709272 73.3641645 55.7709272L73.436223 55.7709272C73.436223 55.7709272 73.4911488 55.138804 73.6725551 54.6150447L76.0666137 47.3014794 74.7242074 47.3014794 74.7242074 45.5139754 79.7486566 45.5139754 79.7486566 47.3014794 78.5513754 47.3014794 74.6335043 58.3350397 72.1668832 58.3350397 68.2490121 47.3014794zM87.513348 56.4748415C89.8348441 56.4748415 91.7396098 54.4706096 91.7396098 51.8342544 91.7396098 49.3057615 89.8348441 47.3732706 87.513348 47.3732706 85.191852 47.3732706 83.2870863 49.3057615 83.2870863 51.8342544 83.2870863 54.4706096 85.191852 56.4748415 87.513348 56.4748415M87.513348 45.2972976C91.3223754 45.2972976 94.1880902 48.1679398 94.1880902 51.8342544 94.1880902 55.6079297 91.3223754 58.5518178 87.513348 58.5518178 83.7043207 58.5518178 80.838102 55.6079297 80.838102 51.8342544 80.838102 48.1679398 83.7043207 45.2972976 87.513348 45.2972976" mask="url(#b)"/>
      <polygon fill="#FFFFFF" points="98.725 56.565 100.267 56.565 100.267 47.41 97.836 47.41 97.836 49.342 95.823 49.342 95.823 45.514 107.105 45.514 107.105 49.342 105.091 49.342 105.091 47.41 102.642 47.41 102.642 56.565 104.203 56.565 104.203 58.335 98.725 58.335" mask="url(#b)"/>
      <polygon fill="#FFFFFF" points="108.884 56.565 110.426 56.565 110.426 47.301 108.884 47.301 108.884 45.514 118.443 45.514 118.443 48.818 116.411 48.818 116.411 47.41 112.801 47.41 112.801 50.932 117.045 50.932 117.045 52.827 112.801 52.827 112.801 56.439 116.684 56.439 116.684 54.994 118.715 54.994 118.715 58.335 108.884 58.335" mask="url(#b)"/>
    </g>
  </g>
</svg>
