<svg xmlns="http://www.w3.org/2000/svg" width="129" height="69" viewBox="0 0 129 69" xmlns:xlink="http://www.w3.org/1999/xlink">
  <defs>
    <polygon id="a" points="0 68.507 128.762 68.507 128.762 .283 0 .283"/>
  </defs>
  <g fill="none" fill-rule="evenodd">
    <polygon fill="#FFFFFF" points="0 32.477 104.309 32.477 104.309 .507 0 .507"/>
    <g transform="translate(0 .225)">
      <path fill="#020303" d="M7.02097617 20.8205851L8.54478867 20.8205851 9.30669492 11.4498933 7.74660117 11.4498933 7.74660117 9.64182581 11.9365816 9.64182581 14.8022965 16.9659455C15.019984 17.6058482 15.1106871 18.0437831 15.1106871 18.0437831L15.1469684 18.0437831C15.1469684 18.0437831 15.2376715 17.6058482 15.4734996 16.9659455L18.3210738 9.64182581 22.5110543 9.64182581 22.5110543 11.4498933 20.9696051 11.4498933 21.7133707 20.8205851 23.2366793 20.8205851 23.2366793 22.6103842 17.9587652 22.6103842 17.9587652 20.8205851 19.3913707 20.8205851 18.9197145 14.2809932C18.8834332 13.8247898 18.9741363 13.0752765 18.9741363 13.0752765L18.9197145 13.0752765C18.9197145 13.0752765 18.7745895 13.7882529 18.6113238 14.2266953L16.1447027 20.1994584 14.1129527 20.1994584 11.6463316 14.2266953C11.483066 13.7882529 11.3560816 13.0752765 11.3560816 13.0752765L11.2835191 13.0752765C11.2835191 13.0752765 11.3742223 13.8247898 11.337941 14.2809932L10.8662848 20.8205851 12.3175348 20.8205851 12.3175348 22.6103842 7.02097617 22.6103842 7.02097617 20.8205851zM32.398602 16.5280106L31.1831801 12.8565628C30.9836332 12.2171676 30.947352 11.7239198 30.947352 11.7239198L30.8929301 11.7239198C30.8929301 11.7239198 30.8385082 12.2171676 30.657102 12.8565628L29.4240434 16.5280106 32.398602 16.5280106zM24.5265785 20.8205851L25.7052152 20.8205851 29.5686645 9.64182581 32.2716176 9.64182581 36.1350668 20.8205851 37.3137035 20.8205851 37.3137035 22.6103842 32.4711645 22.6103842 32.4711645 20.8205851 33.7410082 20.8205851 32.9428207 18.3908834 28.8798246 18.3908834 28.0816371 20.8205851 29.3514809 20.8205851 29.3514809 22.6103842 24.5265785 22.6103842 24.5265785 20.8205851zM38.8211895 20.8205851L40.3631426 20.8205851 40.3631426 11.4498933 38.8211895 11.4498933 38.8211895 9.64182581 43.972623 9.64182581 43.972623 11.4498933 42.7390605 11.4498933 42.7390605 14.9751937 44.1721699 14.9751937 46.6206504 11.4498933 45.5140723 11.4498933 45.5140723 9.64182581 50.2301309 9.64182581 50.2301309 11.4498933 49.0691309 11.4498933 45.9675879 15.7424679 45.9675879 15.7790048C45.9675879 15.7790048 46.4029629 15.9799575 46.8020566 16.7472318L48.7793848 20.3638743C48.9421465 20.6744377 49.1961152 20.8205851 49.6314902 20.8205851L50.2301309 20.8205851 50.2301309 22.6103842 48.5798379 22.6103842C47.4914004 22.6103842 47.1467285 22.3363577 46.7657754 21.6421572L44.5168418 17.3678511C44.3172949 17.0212583 44.0633262 16.8933792 43.5553887 16.8933792L42.7390605 16.8933792 42.7390605 20.8205851 44.2265918 20.8205851 44.2265918 22.6103842 38.8211895 22.6103842 38.8211895 20.8205851z"/>
      <polygon fill="#020303" points="52.154 20.821 53.696 20.821 53.696 11.45 52.154 11.45 52.154 9.642 61.713 9.642 61.713 12.984 59.682 12.984 59.682 11.56 56.072 11.56 56.072 15.122 60.317 15.122 60.317 17.04 56.072 17.04 56.072 20.693 59.954 20.693 59.954 19.231 61.986 19.231 61.986 22.61 52.154 22.61"/>
      <path fill="#020303" d="M70.2582375 11.4499948L68.7162844 11.4499948 68.7162844 9.6419273 74.1942492 9.6419273 74.1942492 11.4499948 72.6346594 11.4499948 72.6346594 17.7338287C72.6346594 18.4640586 72.797925 19.1217222 73.0700344 19.5784331 73.5230461 20.3091705 74.4119367 20.728837 75.5003742 20.728837 76.5706711 20.728837 77.4409172 20.3274389 77.9125734 19.5596572 78.2028234 19.0669169 78.3479484 18.4640586 78.3479484 17.7155603L78.3479484 11.4499948 76.8064992 11.4499948 76.8064992 9.6419273 82.2658195 9.6419273 82.2658195 11.4499948 80.7243703 11.4499948 80.7243703 17.7338287C80.7243703 18.9938432 80.3791945 20.163023 79.7810578 20.9851025 78.8377453 22.2268486 77.2232297 22.8297069 75.5003742 22.8297069 73.6681711 22.8297069 72.1085813 22.1542823 71.2196906 21.0028635 70.5484875 20.163023 70.2582375 19.0303801 70.2582375 17.7338287L70.2582375 11.4499948zM90.0309141 16.0894667C90.5751328 16.0894667 90.9742266 16.0163929 91.3370391 15.8337086 92.0258789 15.4871158 92.3891953 14.755871 92.3891953 13.8064198 92.3891953 12.9112666 92.0445234 12.2170661 91.4458828 11.8704733 91.0830703 11.6507446 90.6295547 11.5594024 90.0490547 11.5594024L88.0359492 11.5594024 88.0359492 16.0894667 90.0309141 16.0894667zM84.1180781 20.8204836L85.6595273 20.8204836 85.6595273 11.4497918 84.1180781 11.4497918 84.1180781 9.64172432 90.2848828 9.64172432C91.0467891 9.64172432 91.826332 9.69602216 92.4617578 9.97004867 93.858082 10.555146 94.7651133 11.9978449 94.7651133 13.8064198 94.7651133 15.6515317 93.8036602 17.2216021 92.3166328 17.7513867 91.7179922 17.9528469 91.0649297 18.0071448 90.3393047 18.0071448L88.0359492 18.0071448 88.0359492 20.8204836 89.5955391 20.8204836 89.5955391 22.6107902 84.1180781 22.6107902 84.1180781 20.8204836z"/>
      <mask id="b" fill="white">
        <use xlink:href="#a"/>
      </mask>
      <polygon fill="#FFFFFF" points="0 68.507 128.762 68.507 128.762 36.537 0 36.537" mask="url(#b)"/>
      <path fill="#020303" d="M9.56439258 57.2162283L11.1244863 57.2162283 11.1244863 53.5813173 7.6959082 47.8455365 6.51727148 47.8455365 6.51727148 46.0374689 11.3058926 46.0374689 11.3058926 47.8455365 10.0541895 47.8455365 12.012873 51.2429577C12.1942793 51.5535211 12.2849824 51.8275476 12.2849824 51.8275476L12.3212637 51.8275476C12.3212637 51.8275476 12.4301074 51.5535211 12.6115137 51.2429577L14.5707012 47.8455365 13.3371387 47.8455365 13.3371387 46.0374689 18.0894785 46.0374689 18.0894785 47.8455365 16.9284785 47.8455365 13.5004043 53.5813173 13.5004043 57.2162283 15.0423574 57.2162283 15.0423574 59.0060273 9.56439258 59.0060273 9.56439258 57.2162283zM25.7995969 57.1245309C28.121093 57.1245309 30.0258586 55.0972421 30.0258586 52.4305582 30.0258586 49.8729774 28.121093 47.918255 25.7995969 47.918255 23.4781008 47.918255 21.5733352 49.8729774 21.5733352 52.4305582 21.5733352 55.0972421 23.4781008 57.1245309 25.7995969 57.1245309M25.7995969 45.8184C29.6086242 45.8184 32.4743391 48.7220661 32.4743391 52.4305582 32.4743391 56.247646 29.6086242 59.2254008 25.7995969 59.2254008 21.9905695 59.2254008 19.1243508 56.247646 19.1243508 52.4305582 19.1243508 48.7220661 21.9905695 45.8184 25.7995969 45.8184M35.6321684 47.8456379L34.0902152 47.8456379 34.0902152 46.0375704 39.5681801 46.0375704 39.5681801 47.8456379 38.0085902 47.8456379 38.0085902 54.1294718C38.0085902 54.8597017 38.1718559 55.5173654 38.4439652 55.9740762 38.896977 56.7048136 39.7858676 57.1244801 40.8743051 57.1244801 41.944098 57.1244801 42.814848 56.723082 43.2865043 55.9553003 43.5767543 55.4625601 43.7218793 54.8597017 43.7218793 54.1112034L43.7218793 47.8456379 42.1804301 47.8456379 42.1804301 46.0375704 47.6397504 46.0375704 47.6397504 47.8456379 46.0983012 47.8456379 46.0983012 54.1294718C46.0983012 55.3894863 45.7531254 56.5586661 45.1549887 57.3807457 44.2116762 58.6224917 42.5971605 59.22535 40.8743051 59.22535 39.0426059 59.22535 37.4825121 58.5499254 36.5936215 57.3985066 35.9224184 56.5586661 35.6321684 55.4260232 35.6321684 54.1294718L35.6321684 47.8456379zM55.5497684 52.1198426C56.8014715 52.1198426 57.6177996 51.3708368 57.6177996 49.9824358 57.6177996 49.1425953 57.309409 48.4849316 56.6019246 48.1926367 56.2391121 48.0282208 55.7493152 47.9551471 55.1506746 47.9551471L53.4091746 47.9551471 53.4091746 52.1198426 55.5497684 52.1198426zM49.4918074 57.2162283L51.0332566 57.2162283 51.0332566 47.8455365 49.4918074 47.8455365 49.4918074 46.0374689 55.1688152 46.0374689C56.1121277 46.0374689 56.8921746 46.0917668 57.6177996 46.3114954 59.0504051 46.7859673 59.9937176 47.9551471 59.9937176 49.7819905 59.9937176 51.590058 59.0504051 52.8688484 57.5633777 53.3798571L57.5633777 53.4169014C57.5633777 53.4169014 57.943827 53.6173467 58.1977957 54.0928335L59.685327 56.7960543C59.8667332 57.1243786 60.120702 57.2162283 60.556077 57.2162283L60.9733113 57.2162283 60.9733113 59.0060273 59.4676395 59.0060273C58.3973426 59.0060273 58.0708113 58.7873136 57.6717176 58.0378003L55.8400184 54.6951843C55.567909 54.2024441 55.3320809 54.0375207 54.5883152 54.0375207L53.4091746 54.0375207 53.4091746 57.2162283 54.8967059 57.2162283 54.8967059 59.0060273 49.4918074 59.0060273 49.4918074 57.2162283zM68.2490121 47.8456379L67.0698715 47.8456379 67.0698715 46.0375704 72.0943207 46.0375704 72.0943207 47.8456379 70.7337738 47.8456379 73.146477 55.2433389C73.3092387 55.7731234 73.3641645 56.4125186 73.3641645 56.4125186L73.436223 56.4125186C73.436223 56.4125186 73.4911488 55.7731234 73.6725551 55.2433389L76.0666137 47.8456379 74.7242074 47.8456379 74.7242074 46.0375704 79.7486566 46.0375704 79.7486566 47.8456379 78.5513754 47.8456379 74.6335043 59.0061288 72.1668832 59.0061288 68.2490121 47.8456379zM87.513348 57.1245309C89.8348441 57.1245309 91.7396098 55.0972421 91.7396098 52.4305582 91.7396098 49.8729774 89.8348441 47.918255 87.513348 47.918255 85.191852 47.918255 83.2870863 49.8729774 83.2870863 52.4305582 83.2870863 55.0972421 85.191852 57.1245309 87.513348 57.1245309M87.513348 45.8184C91.3223754 45.8184 94.1880902 48.7220661 94.1880902 52.4305582 94.1880902 56.247646 91.3223754 59.2254008 87.513348 59.2254008 83.7043207 59.2254008 80.838102 56.247646 80.838102 52.4305582 80.838102 48.7220661 83.7043207 45.8184 87.513348 45.8184" mask="url(#b)"/>
      <polygon fill="#020303" points="98.725 57.216 100.267 57.216 100.267 47.955 97.836 47.955 97.836 49.91 95.823 49.91 95.823 46.037 107.105 46.037 107.105 49.91 105.091 49.91 105.091 47.955 102.642 47.955 102.642 57.216 104.203 57.216 104.203 59.006 98.725 59.006" mask="url(#b)"/>
      <polygon fill="#020303" points="108.884 57.216 110.426 57.216 110.426 47.846 108.884 47.846 108.884 46.037 118.443 46.037 118.443 49.38 116.411 49.38 116.411 47.955 112.801 47.955 112.801 51.517 117.045 51.517 117.045 53.435 112.801 53.435 112.801 57.088 116.684 57.088 116.684 55.627 118.715 55.627 118.715 59.006 108.884 59.006" mask="url(#b)"/>
    </g>
  </g>
</svg>
