<svg xmlns="http://www.w3.org/2000/svg" xmlns:xlink="http://www.w3.org/1999/xlink" viewBox="0 0 138.76 78.22"><defs><style>.cls-1{fill:#fff;}.cls-2{mask:url(#mask);}.cls-3{mask:url(#mask-2);}.cls-4{mask:url(#mask-3);}.cls-5{mask:url(#mask-4);}.cls-6{mask:url(#mask-5);}.cls-7{mask:url(#mask-6);}.cls-8{mask:url(#mask-7);}.cls-9{mask:url(#mask-8);}.cls-10{mask:url(#mask-9);}.cls-11{mask:url(#mask-10);}.cls-12{mask:url(#mask-11);}.cls-13{mask:url(#mask-12);}.cls-14{mask:url(#mask-13);}.cls-15{mask:url(#mask-14);}.cls-16{mask:url(#mask-15);}.cls-17{mask:url(#mask-16);}</style><mask id="mask" x="0" y="0" width="114.31" height="41.97" maskUnits="userSpaceOnUse"><g id="J"><polygon id="I" class="cls-1" points="5 36.97 109.31 36.97 109.31 5 5 5 5 36.97"/></g></mask><mask id="mask-2" x="7.02" y="9.36" width="26.22" height="22.97" maskUnits="userSpaceOnUse"><g id="L"><path id="K" class="cls-1" d="M12,25.54h1.52l.76-9.37H12.75V14.36h4.19l2.87,7.32a10,10,0,0,1,.31,1.08h0a8.38,8.38,0,0,1,.33-1.08l2.85-7.32h4.19v1.81H26l.74,9.37h1.52v1.79H23V25.54h1.43L23.92,19A7.88,7.88,0,0,1,24,17.79h-.05a9.78,9.78,0,0,1-.31,1.15l-2.47,6h-2l-2.47-6a8.41,8.41,0,0,1-.29-1.15h-.07A7.88,7.88,0,0,1,16.34,19l-.47,6.54h1.45v1.79H12Z"/></g></mask><mask id="mask-3" x="24.53" y="9.36" width="22.79" height="22.97" maskUnits="userSpaceOnUse"><g id="N"><path id="M" class="cls-1" d="M37.4,21.25l-1.22-3.67a5.59,5.59,0,0,1-.24-1.13h-.05a7.71,7.71,0,0,1-.24,1.13l-1.23,3.67Zm-7.87,4.29h1.18l3.86-11.18h2.7l3.86,11.18h1.18v1.79H37.47V25.54h1.27l-.8-2.43H33.88l-.8,2.43h1.27v1.79H29.53Z"/></g></mask><mask id="mask-4" x="38.82" y="9.36" width="21.41" height="22.97" maskUnits="userSpaceOnUse"><g id="P"><path id="O" class="cls-1" d="M43.82,25.54h1.54V16.17H43.82V14.36H49v1.81H47.74v3.53h1.43l2.45-3.53H50.51V14.36h4.72v1.81H54.07L51,20.46v0a2.13,2.13,0,0,1,.83,1l2,3.62a.85.85,0,0,0,.85.46h.6v1.79H53.58c-1.09,0-1.43-.27-1.81-1l-2.25-4.27a.94.94,0,0,0-1-.47h-.82v3.93h1.49v1.79H43.82Z"/></g></mask><mask id="mask-5" x="52.15" y="9.36" width="19.83" height="22.97" maskUnits="userSpaceOnUse"><g id="R"><polygon id="Q" class="cls-1" points="57.15 25.54 58.7 25.54 58.7 16.17 57.15 16.17 57.15 14.36 66.71 14.36 66.71 17.7 64.68 17.7 64.68 16.28 61.07 16.28 61.07 19.84 65.32 19.84 65.32 21.76 61.07 21.76 61.07 25.41 64.95 25.41 64.95 23.95 66.99 23.95 66.99 27.33 57.15 27.33 57.15 25.54"/></g></mask><mask id="mask-6" x="68.72" y="9.36" width="23.55" height="23.19" maskUnits="userSpaceOnUse"><g id="T"><path id="S" class="cls-1" d="M75.26,16.17H73.72V14.36h5.48v1.81H77.63v6.28a3.69,3.69,0,0,0,.44,1.84,2.75,2.75,0,0,0,2.43,1.15,2.69,2.69,0,0,0,2.41-1.17,3.55,3.55,0,0,0,.44-1.84V16.17H81.81V14.36h5.46v1.81H85.72v6.28a5.6,5.6,0,0,1-.94,3.25,5.91,5.91,0,0,1-8.56,0,5.14,5.14,0,0,1-1-3.27Z"/></g></mask><mask id="mask-7" x="84.12" y="9.36" width="20.65" height="22.97" maskUnits="userSpaceOnUse"><g id="V"><path id="U" class="cls-1" d="M95,20.81a2.78,2.78,0,0,0,1.31-.26,2.11,2.11,0,0,0,1.05-2,2.12,2.12,0,0,0-.94-1.94,2.64,2.64,0,0,0-1.4-.31H93v4.53Zm-5.91,4.73h1.54V16.17H89.12V14.36h6.17a5.62,5.62,0,0,1,2.18.33,4,4,0,0,1,2.3,3.84,4,4,0,0,1-2.45,3.95,6.16,6.16,0,0,1-2,.26H93v2.81H94.6v1.79H89.12Z"/></g></mask><mask id="mask-8" x="0" y="36.26" width="138.76" height="41.97" maskUnits="userSpaceOnUse"><g id="X"><polygon id="W" class="cls-1" points="5 73.22 133.76 73.22 133.76 41.26 5 41.26 5 73.22"/></g></mask><mask id="mask-9" x="6.52" y="45.76" width="21.57" height="22.97" maskUnits="userSpaceOnUse"><g id="Z"><path id="Y" class="cls-1" d="M14.56,61.93h1.56V58.3L12.7,52.56H11.52V50.76h4.79v1.81H15.05L17,56a3.44,3.44,0,0,1,.27.58h0a4.83,4.83,0,0,1,.29-.58l2-3.4H18.34V50.76h4.75v1.81H21.93L18.5,58.3v3.63H20v1.79H14.56Z"/></g></mask><mask id="mask-10" x="19.12" y="45.54" width="23.35" height="23.41" maskUnits="userSpaceOnUse"><g id="ab"><path id="aa" class="cls-1" d="M30.8,61.84A4.44,4.44,0,0,0,35,57.15a4.24,4.24,0,1,0-8.45,0A4.44,4.44,0,0,0,30.8,61.84Zm0-11.31a6.53,6.53,0,0,1,6.67,6.61,6.68,6.68,0,1,1-13.35,0A6.53,6.53,0,0,1,30.8,50.54Z"/></g></mask><mask id="mask-11" x="34.09" y="45.76" width="23.55" height="23.19" maskUnits="userSpaceOnUse"><g id="ad"><path id="ac" class="cls-1" d="M40.63,52.56H39.09V50.76h5.48v1.81H43v6.28a3.69,3.69,0,0,0,.44,1.84,2.75,2.75,0,0,0,2.43,1.15,2.69,2.69,0,0,0,2.41-1.17,3.55,3.55,0,0,0,.44-1.84V52.56H47.18V50.76h5.46v1.81H51.1v6.28a5.6,5.6,0,0,1-.94,3.25,5.26,5.26,0,0,1-4.28,1.84,5.3,5.3,0,0,1-4.28-1.83,5.14,5.14,0,0,1-1-3.27Z"/></g></mask><mask id="mask-12" x="49.49" y="45.76" width="21.48" height="22.97" maskUnits="userSpaceOnUse"><g id="af"><path id="ae" class="cls-1" d="M60.55,56.84a1.93,1.93,0,0,0,2.07-2.14,1.76,1.76,0,0,0-1-1.79,3.6,3.6,0,0,0-1.45-.24H58.41v4.16Zm-6.06,5.1H56V52.56H54.49V50.76h5.68a8.36,8.36,0,0,1,2.45.27A3.39,3.39,0,0,1,65,54.5a3.57,3.57,0,0,1-2.43,3.6v0a1.72,1.72,0,0,1,.63.68l1.49,2.7a.84.84,0,0,0,.87.42H66v1.79H64.47c-1.07,0-1.4-.22-1.8-1l-1.83-3.34c-.27-.49-.51-.66-1.25-.66H58.41v3.18H59.9v1.79h-5.4Z"/></g></mask><mask id="mask-13" x="67.07" y="45.76" width="22.68" height="22.97" maskUnits="userSpaceOnUse"><g id="ah"><path id="ag" class="cls-1" d="M73.25,52.56H72.07V50.76h5v1.81H75.73L78.15,60a6.6,6.6,0,0,1,.22,1.17h.07A5.73,5.73,0,0,1,78.67,60l2.39-7.4H79.72V50.76h5v1.81h-1.2L79.63,63.72H77.17Z"/></g></mask><mask id="mask-14" x="80.84" y="45.54" width="23.35" height="23.41" maskUnits="userSpaceOnUse"><g id="aj"><path id="ai" class="cls-1" d="M92.51,61.84a4.44,4.44,0,0,0,4.23-4.69,4.24,4.24,0,1,0-8.45,0A4.44,4.44,0,0,0,92.51,61.84Zm0-11.31a6.53,6.53,0,0,1,6.67,6.61,6.68,6.68,0,1,1-13.35,0A6.53,6.53,0,0,1,92.51,50.54Z"/></g></mask><mask id="mask-15" x="95.82" y="45.76" width="21.28" height="22.97" maskUnits="userSpaceOnUse"><g id="al"><polygon id="ak" class="cls-1" points="103.72 61.93 105.27 61.93 105.27 52.67 102.84 52.67 102.84 54.63 100.82 54.63 100.82 50.76 112.1 50.76 112.1 54.63 110.09 54.63 110.09 52.67 107.64 52.67 107.64 61.93 109.2 61.93 109.2 63.72 103.72 63.72 103.72 61.93"/></g></mask><mask id="mask-16" x="108.88" y="45.76" width="19.83" height="22.97" maskUnits="userSpaceOnUse"><g id="an"><polygon id="am" class="cls-1" points="113.88 61.93 115.43 61.93 115.43 52.56 113.88 52.56 113.88 50.76 123.44 50.76 123.44 54.1 121.41 54.1 121.41 52.67 117.8 52.67 117.8 56.23 122.05 56.23 122.05 58.15 117.8 58.15 117.8 61.81 121.68 61.81 121.68 60.34 123.72 60.34 123.72 63.72 113.88 63.72 113.88 61.93"/></g></mask></defs><title>logo_black</title><g id="レイヤー_2" data-name="レイヤー 2"><g id="レイヤー_1-2" data-name="レイヤー 1"><g class="cls-2"><polygon points="0 41.97 114.31 41.97 114.31 0 0 0 0 41.97"/></g><g class="cls-3"><polygon class="cls-1" points="7.02 32.33 33.24 32.33 33.24 9.36 7.02 9.36 7.02 32.33"/></g><g class="cls-4"><polygon class="cls-1" points="24.53 32.33 47.31 32.33 47.31 9.36 24.53 9.36 24.53 32.33"/></g><g class="cls-5"><polygon class="cls-1" points="38.82 32.33 60.23 32.33 60.23 9.36 38.82 9.36 38.82 32.33"/></g><g class="cls-6"><polygon class="cls-1" points="52.15 32.33 71.99 32.33 71.99 9.36 52.15 9.36 52.15 32.33"/></g><g class="cls-7"><polygon class="cls-1" points="68.72 32.55 92.27 32.55 92.27 9.36 68.72 9.36 68.72 32.55"/></g><g class="cls-8"><polygon class="cls-1" points="84.12 32.33 104.77 32.33 104.77 9.36 84.12 9.36 84.12 32.33"/></g><g class="cls-9"><polygon points="0 78.22 138.76 78.22 138.76 36.26 0 36.26 0 78.22"/></g><g class="cls-10"><polygon class="cls-1" points="6.52 68.72 28.09 68.72 28.09 45.76 6.52 45.76 6.52 68.72"/></g><g class="cls-11"><polygon class="cls-1" points="19.12 68.94 42.47 68.94 42.47 45.54 19.12 45.54 19.12 68.94"/></g><g class="cls-12"><polygon class="cls-1" points="34.09 68.94 57.64 68.94 57.64 45.76 34.09 45.76 34.09 68.94"/></g><g class="cls-13"><polygon class="cls-1" points="49.49 68.72 70.97 68.72 70.97 45.76 49.49 45.76 49.49 68.72"/></g><g class="cls-14"><polygon class="cls-1" points="67.07 68.72 89.75 68.72 89.75 45.76 67.07 45.76 67.07 68.72"/></g><g class="cls-15"><polygon class="cls-1" points="80.84 68.94 104.19 68.94 104.19 45.54 80.84 45.54 80.84 68.94"/></g><g class="cls-16"><polygon class="cls-1" points="95.82 68.72 117.11 68.72 117.11 45.76 95.82 45.76 95.82 68.72"/></g><g class="cls-17"><polygon class="cls-1" points="108.88 68.72 128.72 68.72 128.72 45.76 108.88 45.76 108.88 68.72"/></g></g></g></svg>