<svg xmlns="http://www.w3.org/2000/svg" xmlns:xlink="http://www.w3.org/1999/xlink" viewBox="0 0 321.99 81"><defs><style>.cls-1{fill:none;}.cls-2{clip-path:url(#clip-path);}.cls-3{fill:#fff;}</style><clipPath id="clip-path" transform="translate(0 0)"><rect class="cls-1" width="321.99" height="81"/></clipPath></defs><title>ndp_white</title><g id="レイヤー_2" data-name="レイヤー 2"><g id="レイヤー_1-2" data-name="レイヤー 1"><g class="cls-2"><path class="cls-3" d="M80.49,45.78c-1.09.16-2.71.41-3.62-.4s-.58-2.23-.27-3.18c.67-2.07,2.12-5.53,3.72-11.21.16-.56-.24-.87-1-.62a72.69,72.69,0,0,1-7,2.42c-1.8.45-5,1.56-6.44-.21a3.93,3.93,0,0,1-.65-2.07c-.06-.48-.2-4.38-1.35-2.88-6,7.77-11.85,14.33-11,7.3s2-14.69,3-21.67c.16-1.05,0-1.52-1.06-.87s-2,1.24-3,1.83a3.66,3.66,0,0,1-4.21.1c-1.19-1-5.8-11.95-6.48-13.41-.57-1.22-.78-1.22-1.45,0-.43.79-3.59,7.67-5.35,10.7-1.49,2.57-4.88.82-6.19,0-.72-.43-1.2-.92-1.92-1.36a1.29,1.29,0,0,0-.94-.29c-.51.15-.29,1.19-.22,1.52,1.16,5.37,3.64,17.64,3.64,20.21s-1.6,1.67-2.35,1.06a61.28,61.28,0,0,0-12.72-7.94c-.68-.3-1-.07-.86.7s.39,1.48.57,2.23c.24,1,.39,4.07-1.41,3.94-4.16-.3-9.18-.85-11.35-.57-.76.1-.88.39-.14,1.71a84.69,84.69,0,0,1,4.91,9c.94,2,.92,4.2-1.35,5.1a8.59,8.59,0,0,0-2.4,1.25c-.57.72,2.65,1.75,3.15,1.93,4,1.48,12.65,4.54,15.15,8.46.79,1.25-.28,2.64-1.1,3.67-.38.48-2.15,3-.38,2.68,6.63-1.11,13.29-1.36,20.1.79L37.92,81h5.16l-.67-14a31.17,31.17,0,0,0,15.15,1.27,40.92,40.92,0,0,0,4.2-.9c2.86-.9,1-1.56.53-1.72-1.69-.52-2.9-2.92,0-4.42,7-3.63,10-5.12,18.36-14.23.6-.73.39-1.26-.14-1.18" transform="translate(0 0)"/></g><polygon class="cls-3" points="135 4.5 135 28.51 117 4.5 90 4.5 90 76.5 117 76.5 117 52.51 135 76.5 162 76.5 162 4.5 135 4.5 135 4.5"/><path class="cls-3" d="M288.49,42h-10V25.5h10a8,8,0,0,1,8,8.25,8,8,0,0,1-8,8.25Zm1.06-37.5H250v72h28.5V63h11.06c15,0,32.43-7.31,32.43-29.25S304.56,4.5,289.56,4.5Z" transform="translate(0 0)"/><path class="cls-3" d="M205.87,51.5H198v-22h7.87c5.25,0,10.5,2.75,10.5,11s-5.25,11-10.5,11ZM207,4.5H171v72h36c18,0,36-9,36-36s-18-36-36-36Z" transform="translate(0 0)"/></g></g></svg>